<?xml version="1.0" standalone="no"?>
<!DOCTYPE svg PUBLIC "-//W3C//DTD SVG 20010904//EN"
 "http://www.w3.org/TR/2001/REC-SVG-20010904/DTD/svg10.dtd">
<svg version="1.0" xmlns="http://www.w3.org/2000/svg"
 width="900.000000pt" height="420.000000pt" viewBox="0 0 900.000000 420.000000"
 preserveAspectRatio="xMidYMid meet">

<g transform="translate(0.000000,420.000000) scale(0.100000,-0.100000)"
fill="#000000" stroke="none">
<path d="M185 4190 c3 -5 8 -10 11 -10 2 0 4 5 4 10 0 6 -5 10 -11 10 -5 0 -7
-4 -4 -10z"/>
<path d="M227 4172 c-19 -27 -20 -50 -3 -44 5 2 4 -3 -2 -10 -14 -17 -28 -98
-17 -98 4 0 14 8 22 18 10 12 16 13 19 5 3 -7 13 -9 22 -6 15 6 16 5 2 -12
-14 -16 -13 -17 8 -11 13 5 22 3 22 -4 0 -6 10 -8 27 -4 l27 7 -24 -33 c-22
-31 -22 -32 -2 -26 17 6 20 3 18 -16 -1 -13 -6 -30 -11 -37 -4 -8 -9 -35 -9
-60 -1 -37 -4 -46 -18 -45 -10 1 -15 -2 -12 -7 11 -19 34 -8 40 19 3 15 10 38
15 51 8 20 12 22 19 11 5 -8 6 -18 4 -22 -3 -4 2 -8 10 -8 18 0 27 13 31 46 1
14 8 31 15 37 10 10 12 8 6 -7 -7 -19 -6 -19 14 -1 11 10 20 24 20 32 0 7 7
13 15 13 8 0 15 -4 15 -10 0 -18 22 -10 27 10 4 15 11 19 26 14 20 -6 20 -6
-1 21 -21 26 -21 29 -6 47 21 23 46 24 37 2 -5 -14 -2 -16 22 -10 23 6 26 4
21 -9 -4 -12 0 -19 15 -22 17 -5 20 -11 15 -35 l-6 -30 29 31 c16 17 32 39 36
48 6 16 10 14 32 -12 13 -16 31 -43 39 -60 9 -16 22 -41 29 -55 13 -22 13 -25
-1 -28 -8 -2 -22 2 -31 10 -14 12 -15 11 -5 -8 6 -11 17 -26 25 -33 15 -12 97
-16 172 -7 22 2 46 4 53 5 7 1 10 6 6 13 -5 7 -2 9 8 5 9 -3 24 3 34 14 16 18
13 24 -10 20 -5 -1 -4 5 4 14 9 11 16 12 25 5 9 -8 31 -5 76 10 38 13 80 20
106 18 24 -2 43 0 43 4 0 19 17 5 27 -22 6 -16 16 -30 23 -30 6 0 8 4 5 10 -3
6 1 7 9 4 19 -7 20 -16 5 -31 -6 -6 -8 -16 -5 -22 12 -19 26 -12 26 14 0 14 5
25 11 25 5 0 7 -4 4 -10 -3 -5 -2 -10 4 -10 5 0 13 9 16 20 9 28 21 25 47 -11
21 -28 100 -89 116 -89 3 0 -9 13 -27 28 -31 26 -33 29 -17 44 15 16 15 18 -4
28 -11 6 -20 16 -20 23 0 7 -17 23 -37 35 l-38 23 45 -3 c29 -2 45 1 45 9 0 7
5 17 12 24 8 8 9 19 2 36 -8 21 -7 22 10 14 10 -6 22 -7 26 -3 5 4 5 1 1 -6
-4 -7 -12 -10 -17 -7 -23 15 -5 -11 29 -41 20 -18 32 -33 25 -34 -7 0 -17 8
-22 18 -6 9 -11 12 -11 5 0 -19 43 -55 61 -50 9 2 24 0 33 -5 16 -9 16 -7 7
10 -17 31 -14 35 22 28 17 -3 39 -1 47 4 13 9 13 10 0 11 -17 1 26 16 51 18 8
1 24 -6 35 -15 10 -8 14 -13 8 -10 -6 3 -19 -3 -29 -14 -18 -19 -18 -21 2 -43
23 -26 28 -67 7 -67 -18 0 -18 -14 -1 -29 11 -9 17 -2 27 30 l14 41 18 -22
c14 -17 18 -19 18 -6 0 14 10 11 59 -14 33 -16 62 -35 65 -42 3 -7 3 -3 0 10
-6 26 -1 28 21 6 20 -20 28 -13 28 26 0 18 3 26 8 19 6 -10 11 -10 23 0 8 7
20 10 26 6 18 -11 11 -23 -11 -18 -19 5 -20 4 -8 -14 11 -18 9 -24 -14 -47
-15 -15 -27 -31 -27 -35 0 -15 33 -22 41 -9 6 9 23 4 69 -21 34 -18 64 -30 68
-27 3 3 0 6 -6 6 -7 0 -12 5 -12 11 0 7 9 9 23 5 46 -14 60 -15 51 -6 -5 4
-16 10 -24 12 -24 5 -37 21 -32 40 6 23 3 23 62 -7 53 -27 64 -30 56 -16 -3 5
8 8 25 7 16 -1 32 1 35 5 2 4 18 -6 34 -21 17 -16 45 -32 63 -35 17 -4 49 -16
70 -27 36 -18 38 -18 35 -2 -1 10 -29 31 -60 48 -59 32 -70 43 -43 43 8 0 15
-4 15 -8 0 -4 10 -5 22 -1 14 3 19 2 14 -6 -4 -7 -1 -12 8 -12 9 0 16 5 16 12
0 9 3 9 12 0 7 -7 20 -12 30 -12 13 0 18 -8 19 -27 l0 -28 10 24 c5 14 7 39 4
55 l-7 31 17 -23 c9 -13 14 -26 11 -29 -3 -3 -1 -12 6 -20 8 -11 7 -12 -6 -7
-12 4 -16 0 -16 -15 0 -12 6 -21 16 -21 8 0 12 -4 9 -10 -3 -6 1 -7 9 -4 17 7
21 20 9 27 -5 2 -2 2 5 0 10 -2 11 4 6 20 -6 21 -5 20 14 -4 11 -14 24 -38 27
-52 4 -15 11 -27 16 -27 5 0 8 -3 8 -7 -1 -5 0 -12 1 -18 1 -5 2 -28 1 -50 0
-32 1 -36 9 -20 8 19 9 19 9 -2 1 -13 -4 -23 -10 -23 -6 0 -9 -7 -5 -15 3 -8
0 -15 -6 -15 -9 0 -9 -3 0 -12 7 -7 12 -20 12 -30 0 -22 40 -89 41 -68 0 8 5
4 10 -10 8 -18 12 -21 18 -11 6 9 10 10 14 2 3 -7 4 -7 2 1 -1 7 -7 12 -12 11
-6 -1 -15 9 -21 22 -9 19 -9 24 1 22 8 -1 12 19 13 67 2 60 -1 72 -20 87 -11
10 -16 18 -9 19 6 0 14 -6 16 -12 5 -13 11 25 8 50 -1 6 2 12 7 12 10 0 12
-23 14 -137 1 -35 5 -63 10 -63 4 0 8 -5 8 -11 0 -5 -4 -8 -9 -4 -20 12 -19
-13 1 -31 12 -11 18 -13 14 -6 -4 6 -3 12 1 12 5 0 15 -16 22 -35 7 -19 17
-35 23 -35 6 0 6 6 -2 15 -10 12 -10 18 0 30 7 8 16 13 20 10 13 -8 20 25 10
46 -7 12 -7 19 -1 19 6 0 8 7 5 15 -4 8 -2 15 4 15 6 0 12 -6 15 -12 2 -7 7
-10 11 -7 9 8 -14 59 -26 59 -5 0 -6 -5 -2 -12 4 -7 3 -8 -4 -4 -16 9 6 56 27
56 12 0 11 -3 -5 -16 -10 -8 -13 -13 -6 -9 6 3 12 1 12 -4 0 -6 5 -11 10 -11
16 0 12 40 -5 46 -12 5 -13 10 -4 20 8 10 9 18 0 27 -6 8 -9 16 -6 19 3 3 -1
11 -10 18 -20 17 -32 5 -15 -15 7 -9 11 -18 8 -20 -5 -5 -18 20 -34 60 -7 19
-8 19 -11 -2 -3 -12 1 -32 7 -44 8 -15 9 -19 1 -15 -11 7 -12 6 -16 -32 -1
-13 -8 -29 -14 -35 -9 -9 -11 -8 -6 4 4 10 2 20 -4 24 -6 3 -11 11 -11 16 0 6
5 7 11 3 6 -3 0 11 -14 32 -27 42 -45 100 -28 89 7 -4 9 5 5 25 -4 19 -2 30 4
30 6 0 2 16 -9 35 -12 19 -25 35 -30 35 -15 0 -10 -16 11 -35 24 -22 26 -40 4
-31 -15 6 -15 4 -3 -11 10 -14 10 -16 0 -6 -7 6 -19 9 -26 7 -7 -3 -23 11 -35
31 -16 26 -26 33 -33 26 -13 -13 -30 -15 -23 -2 3 5 -1 11 -9 15 -8 3 -15 11
-15 17 0 8 4 8 15 -1 8 -7 15 -8 15 -2 0 5 -7 15 -15 22 -8 7 -15 20 -15 29 0
21 -76 151 -98 167 -9 7 -14 16 -9 20 4 4 -2 18 -14 30 -13 14 -17 24 -10 29
7 3 10 3 9 -2 -2 -4 2 -9 7 -10 11 -2 11 11 0 42 -5 15 -3 15 8 -3 11 -19 15
-21 25 -9 9 10 9 16 0 25 -16 16 -1 15 16 0 10 -10 9 -16 -5 -32 -20 -20 -20
-62 -1 -60 38 3 40 5 35 27 l-6 22 22 -22 c12 -13 34 -23 50 -23 15 0 36 -8
47 -17 22 -21 54 -28 54 -13 0 5 -9 10 -20 10 -11 0 -20 7 -20 15 0 9 -8 30
-17 48 -9 18 -16 36 -15 40 1 5 -2 6 -8 2 -6 -4 -18 -1 -26 6 -10 8 -12 14 -4
19 6 4 -40 8 -102 9 -103 2 -114 0 -125 -18 -11 -17 -10 -22 6 -30 10 -6 21
-8 23 -5 3 3 8 -2 11 -10 4 -11 0 -13 -20 -10 -15 3 -33 -2 -44 -12 -17 -15
-19 -15 -25 -1 -3 8 -1 24 4 34 7 12 7 25 1 35 -9 16 -49 17 -475 18 -471 0
-496 -1 -517 -36 -12 -21 -47 -16 -136 18 -16 6 -28 5 -35 -3 -8 -9 -8 -10 2
-5 10 6 11 1 6 -18 -5 -21 0 -32 24 -54 23 -22 29 -34 25 -57 -2 -17 -4 -39
-4 -50 0 -16 -2 -17 -9 -5 -5 8 -12 11 -16 7 -4 -3 -1 -14 6 -22 11 -14 10
-14 -13 -6 -19 7 -28 6 -37 -4 -15 -18 -48 -8 -56 17 -4 15 -8 17 -14 8 -11
-17 -41 -5 -47 20 -3 11 -10 17 -15 13 -6 -3 -9 0 -6 8 6 17 -18 43 -31 35
-13 -9 -41 4 -41 18 0 7 12 18 27 25 17 8 23 15 15 19 -6 4 -9 22 -7 40 l4 33
-64 -2 c-55 -2 -65 -5 -66 -21 -1 -10 -2 -23 -3 -30 -1 -6 15 -17 34 -24 l35
-12 -31 -1 c-16 -1 -35 4 -42 11 -7 7 -12 8 -12 4 0 -5 16 -24 35 -43 19 -19
35 -38 35 -43 0 -12 -43 0 -57 17 -6 8 -25 17 -42 19 -18 3 -54 11 -82 18 -49
13 -50 13 -66 -15 -31 -52 -52 -34 -49 39 l2 43 -42 -42 c-27 -27 -43 -36 -46
-28 -3 8 18 35 46 61 l51 47 -45 1 c-40 0 -50 -5 -82 -37 -19 -21 -38 -45 -41
-53 -3 -9 -6 -6 -6 9 l-1 24 -21 -24 c-11 -13 -29 -35 -39 -49 -21 -28 -41
-19 -22 10 15 24 15 33 2 25 -5 -3 -10 -2 -10 2 0 5 9 14 19 20 15 10 21 10
24 0 3 -7 6 -1 6 12 1 13 4 22 7 18 4 -3 13 1 21 9 8 8 23 12 33 9 9 -3 23 1
30 10 11 13 7 15 -33 15 -36 0 -45 -3 -41 -14 4 -11 0 -13 -15 -9 -13 3 -21 1
-21 -7 0 -10 -3 -10 -15 0 -10 9 -15 9 -15 1 0 -6 -10 -11 -21 -11 -17 0 -19
3 -10 14 17 21 6 24 -89 24 -47 0 -77 -2 -67 -5 9 -2 17 -11 17 -18 0 -7 2
-19 5 -27 8 -21 -12 -45 -26 -31 -6 6 -17 9 -23 7 -7 -3 -10 10 -10 36 2 37 0
40 -25 40 -17 0 -32 -9 -44 -28z m2510 -27 c6 -14 7 -23 2 -19 -13 8 -31 44
-22 44 4 0 13 -11 20 -25z m-578 -1 c2 -2 2 -7 -2 -10 -10 -10 -58 6 -52 17 6
8 42 4 54 -7z m-661 -49 c-3 -3 -9 2 -12 12 -6 14 -5 15 5 6 7 -7 10 -15 7
-18z m-1202 -4 c-4 -5 -2 -11 3 -13 5 -1 2 -10 -7 -18 -14 -13 -15 -12 -9 3 3
9 2 17 -4 17 -6 0 -7 5 -4 10 3 6 11 10 16 10 6 0 8 -4 5 -9z m44 -32 c-13 -8
-13 -10 0 -19 8 -5 10 -10 5 -10 -6 0 -16 5 -23 12 -9 9 -7 14 6 24 9 7 19 10
22 8 2 -3 -2 -9 -10 -15z m565 -18 c-3 -6 -14 -11 -23 -11 -13 0 -13 2 4 14
21 15 30 14 19 -3z m620 9 c3 -5 -1 -10 -10 -10 -9 0 -13 5 -10 10 3 6 8 10
10 10 2 0 7 -4 10 -10z m105 0 c8 -5 11 -10 5 -10 -5 0 -17 5 -25 10 -8 5 -10
10 -5 10 6 0 17 -5 25 -10z m80 -72 c0 -5 -11 -1 -25 8 -14 9 -25 18 -25 20 0
2 11 -2 25 -8 14 -6 25 -15 25 -20z m815 -57 c4 -35 3 -66 -1 -70 -28 -20 -40
-82 -13 -66 5 4 9 0 9 -9 0 -11 -7 -12 -27 -7 -19 6 -27 14 -26 27 1 10 4 48
8 84 14 151 36 169 50 41z m-1078 34 c15 -13 25 -27 22 -30 -6 -6 -59 37 -59
48 0 12 10 8 37 -18z m770 -4 c13 -21 8 -31 -16 -31 -13 0 -13 2 -3 9 10 6 8
10 -10 15 -19 5 -20 8 -8 16 21 13 24 13 37 -9z m185 -2 c10 -5 18 -14 18 -20
0 -13 -32 -4 -80 23 l-35 19 40 -6 c22 -4 48 -11 57 -16z m-272 -30 c0 -5 -4
-9 -10 -9 -5 0 -6 -7 -3 -17 4 -10 2 -14 -4 -10 -16 10 -13 56 3 50 8 -3 14
-9 14 -14z m-111 -14 c18 -7 38 -20 43 -29 12 -21 6 -20 -53 10 -38 19 -54 22
-64 14 -10 -8 -15 -8 -21 1 -4 8 -3 9 5 5 6 -4 14 0 17 9 4 10 12 14 23 9 9
-4 31 -12 50 -19z m211 -146 c0 -4 -7 -10 -16 -13 -20 -8 -45 11 -38 29 4 10
11 10 30 1 13 -6 24 -14 24 -17z m150 -5 c0 -2 -9 0 -20 6 -11 6 -20 13 -20
16 0 2 9 0 20 -6 11 -6 20 -13 20 -16z m484 -39 c-4 -8 -7 -15 -9 -15 -2 0 -5
7 -9 15 -3 9 0 15 9 15 9 0 12 -6 9 -15z m136 -195 c0 -5 -2 -10 -4 -10 -3 0
-8 5 -11 10 -3 6 -1 10 4 10 6 0 11 -4 11 -10z"/>
<path d="M2501 3964 c0 -11 3 -14 6 -6 3 7 2 16 -1 19 -3 4 -6 -2 -5 -13z"/>
<path d="M880 4187 c0 -7 9 -13 20 -14 11 -1 20 4 20 13 0 8 -9 14 -20 14 -11
0 -20 -6 -20 -13z"/>
<path d="M1298 4175 c2 -14 6 -25 8 -25 2 0 4 11 4 25 0 14 -4 25 -9 25 -4 0
-6 -11 -3 -25z"/>
<path d="M1480 4190 c-8 -5 -10 -10 -5 -10 6 0 17 5 25 10 8 5 11 10 5 10 -5
0 -17 -5 -25 -10z"/>
<path d="M2858 4188 c8 -8 20 -8 44 -1 l33 11 -44 1 c-34 1 -42 -2 -33 -11z"/>
<path d="M2956 4186 c3 -9 12 -16 20 -16 8 0 14 -6 14 -14 0 -7 7 -19 15 -26
9 -7 15 -20 14 -29 -3 -31 1 -41 17 -41 11 0 14 -5 10 -16 -3 -9 -6 -20 -6
-25 0 -14 -17 -11 -18 4 -3 35 -28 87 -40 82 -9 -3 -10 0 -4 12 13 22 -29 70
-49 57 -8 -4 -27 -7 -44 -6 -21 2 -26 0 -16 -6 9 -7 10 -12 2 -16 -6 -4 -11
-12 -11 -17 0 -6 4 -8 8 -5 5 3 25 -9 45 -25 22 -18 46 -29 59 -27 16 2 24 -3
26 -17 4 -17 2 -18 -11 -6 -16 13 -42 6 -32 -8 2 -5 -6 -6 -20 -4 l-23 5 16
-36 c18 -41 38 -52 60 -34 13 11 15 10 9 -4 -7 -19 8 -25 19 -7 3 6 -7 24 -22
41 l-29 30 52 -26 c44 -22 51 -23 46 -9 -6 16 -5 17 12 3 11 -9 16 -10 11 -2
-4 6 -2 12 4 12 7 0 6 5 -2 14 -7 8 -16 12 -20 9 -5 -2 -8 2 -8 10 0 8 -7 20
-15 27 -8 7 -12 16 -9 21 2 5 -3 21 -13 35 l-17 27 27 -5 c14 -3 24 -1 21 3
-3 5 -11 9 -19 9 -8 0 -30 9 -50 21 -29 17 -34 18 -29 5z"/>
<path d="M3016 4187 c3 -10 9 -15 12 -12 3 3 0 11 -7 18 -10 9 -11 8 -5 -6z"/>
<path d="M844 4165 c-10 -8 -14 -14 -9 -15 15 0 40 18 34 24 -3 3 -14 -1 -25
-9z"/>
<path d="M955 4130 c3 -5 8 -10 11 -10 2 0 4 5 4 10 0 6 -5 10 -11 10 -5 0 -7
-4 -4 -10z"/>
<path d="M2882 4093 c2 -10 11 -19 21 -21 12 -2 15 1 11 12 -8 22 -36 30 -32
9z"/>
<path d="M166 4084 c-24 -23 -19 -27 9 -8 14 9 25 18 25 20 0 10 -20 3 -34
-12z"/>
<path d="M2698 4052 c3 -10 1 -13 -6 -8 -27 16 -2 -36 36 -77 19 -20 28 -24
34 -15 5 9 8 8 8 -4 0 -10 5 -18 10 -18 6 0 10 -6 10 -12 0 -7 11 -26 25 -42
14 -16 25 -24 25 -17 0 7 5 9 12 5 7 -4 8 -3 4 5 -4 6 -11 9 -16 6 -5 -3 -17
9 -26 27 -9 18 -34 49 -54 69 -21 21 -35 41 -31 44 3 4 0 5 -8 3 -19 -4 -25
18 -6 26 9 3 13 2 10 -4 -3 -6 1 -10 9 -10 9 0 16 8 16 19 0 15 -7 19 -29 19
-22 -1 -28 -5 -23 -16z"/>
<path d="M2772 4058 c0 -7 -2 -22 -4 -32 -2 -10 4 -21 12 -24 12 -4 13 -2 3 9
-7 8 -8 20 -4 28 7 10 13 9 29 -5 13 -11 17 -21 11 -24 -6 -4 2 -15 18 -25
l28 -18 -19 21 c-11 12 -14 22 -8 22 14 0 34 -35 25 -43 -7 -8 16 -37 29 -37
5 0 4 8 -1 19 -6 10 -8 21 -5 24 7 6 49 -36 57 -57 4 -9 13 -16 22 -16 18 0
14 6 -42 65 -18 19 -33 39 -33 44 0 5 -9 8 -20 6 -11 -2 -25 4 -32 14 -11 15
-49 41 -61 41 -2 0 -4 -6 -5 -12z"/>
<path d="M2780 3982 c0 -14 44 -49 70 -57 24 -6 24 -6 -3 13 -16 11 -28 23
-27 27 2 8 -20 25 -32 25 -5 0 -8 -4 -8 -8z"/>
<path d="M1786 3935 c7 -18 -7 -20 -25 -2 -11 10 -13 9 -8 -5 3 -9 1 -19 -6
-22 -7 -2 2 -5 20 -5 17 -1 38 -4 47 -7 13 -5 14 -2 5 25 -6 17 -17 31 -25 31
-8 0 -11 -6 -8 -15z"/>
<path d="M3057 3939 c7 -7 15 -10 18 -7 3 3 -2 9 -12 12 -14 6 -15 5 -6 -5z"/>
<path d="M3010 3921 c0 -6 4 -13 10 -16 6 -3 7 1 4 9 -7 18 -14 21 -14 7z"/>
<path d="M3039 3916 c7 -8 10 -19 7 -24 -8 -13 55 -63 68 -54 7 4 4 8 -7 10
-11 2 -16 9 -13 18 3 8 2 13 -3 9 -17 -10 -39 6 -34 24 3 11 -2 21 -13 25 -14
5 -15 4 -5 -8z"/>
<path d="M1246 3907 c-16 -12 -12 -14 33 -15 50 -1 67 10 35 22 -25 10 -49 7
-68 -7z"/>
<path d="M1584 3898 c-3 -5 0 -16 7 -24 12 -14 14 -14 25 1 11 14 14 12 25
-17 7 -18 37 -55 68 -82 31 -27 97 -87 146 -135 110 -105 151 -141 139 -121
-14 24 -101 116 -201 213 -51 50 -90 94 -88 98 10 16 -7 37 -26 32 -21 -6 -23
0 -10 26 9 16 5 18 -35 18 -24 0 -47 -3 -50 -9z"/>
<path d="M2865 3890 c3 -5 11 -10 16 -10 6 0 7 5 4 10 -3 6 -11 10 -16 10 -6
0 -7 -4 -4 -10z"/>
<path d="M179 3881 c11 -7 10 -11 -5 -19 -11 -5 -32 -12 -48 -16 -15 -4 -26
-10 -22 -13 3 -4 -4 -17 -16 -30 l-22 -24 38 5 c26 3 50 16 72 37 19 18 34 28
34 23 0 -6 -5 -15 -11 -21 -6 -6 -9 -17 -7 -23 3 -10 8 -9 19 2 8 8 20 13 27
10 32 -10 3 46 -35 66 -25 14 -45 16 -24 3z"/>
<path d="M1167 3863 c-11 -11 -17 -13 -17 -5 0 10 -4 10 -19 0 -11 -7 -18 -15
-15 -19 2 -4 -3 -10 -12 -13 -23 -9 -26 -8 -18 7 5 8 2 8 -9 -2 -9 -7 -17 -16
-17 -19 0 -3 3 -2 7 2 4 4 13 -12 19 -35 11 -38 11 -44 -8 -70 -18 -24 -48
-46 -48 -35 0 2 7 20 15 39 19 47 19 57 -1 29 -8 -12 -19 -20 -24 -17 -4 3
-13 -2 -20 -10 -7 -8 -21 -15 -31 -15 -25 0 -25 32 1 55 27 25 25 32 -10 37
-20 3 -30 0 -30 -9 0 -7 -9 -13 -21 -13 -15 0 -19 -5 -15 -15 3 -9 0 -15 -9
-15 -8 0 -15 -7 -15 -15 0 -9 -7 -18 -15 -21 -8 -4 -13 -10 -10 -15 3 -4 13
-5 22 -2 10 4 14 2 10 -4 -5 -7 1 -9 15 -5 15 4 19 2 13 -7 -6 -10 -2 -11 15
-6 19 6 22 4 17 -9 -4 -9 -1 -16 5 -16 6 0 -2 -12 -18 -27 -23 -21 -31 -38
-33 -70 -2 -36 0 -42 14 -37 8 4 22 19 31 35 13 27 12 33 -8 30 -11 -1 7 42
19 46 7 3 10 -12 9 -37 0 -22 2 -40 7 -40 4 0 7 -15 8 -32 0 -18 3 -27 6 -19
3 8 17 24 31 36 21 18 30 20 45 11 15 -9 22 -7 37 12 12 15 20 18 23 10 6 -16
13 -9 22 22 7 22 6 23 -9 11 -14 -12 -14 -9 1 33 13 35 19 42 24 29 3 -10 4
-25 1 -33 -5 -13 -3 -13 11 -1 14 11 18 11 23 -3 6 -15 8 -15 20 1 11 15 14
15 15 3 1 -8 1 -19 0 -23 -1 -5 2 -6 7 -3 5 3 23 1 41 -4 26 -7 35 -5 51 13
11 12 18 27 15 35 -2 7 0 10 5 7 14 -9 13 11 -2 35 -11 16 -7 24 25 55 34 33
43 45 34 45 -2 0 -14 -9 -27 -20 -26 -22 -40 -19 -20 5 7 8 9 15 4 15 -5 0 -2
4 6 10 23 14 7 21 -28 11 -21 -7 -32 -6 -32 1 0 5 -7 8 -15 4 -8 -3 -15 0 -15
6 0 7 -13 -3 -30 -22 -16 -19 -29 -29 -30 -22 0 6 4 12 9 12 5 0 12 7 15 15 4
11 -3 17 -24 22 -33 6 -37 15 -15 33 8 7 15 16 15 21 0 15 -25 10 -43 -8z
m-102 -272 c3 -5 1 -12 -5 -16 -5 -3 -10 1 -10 9 0 18 6 21 15 7z"/>
<path d="M2905 3870 c-6 -10 2 -14 20 -10 6 1 7 -2 3 -5 -4 -4 -3 -16 2 -25 7
-13 21 -17 55 -16 29 1 45 -3 45 -10 0 -8 -9 -10 -22 -6 -21 5 -22 4 -8 -12 8
-10 25 -22 38 -27 15 -6 22 -15 19 -23 -3 -8 3 -22 15 -33 19 -17 20 -17 17 2
-3 12 1 19 8 18 7 -2 10 4 7 12 -4 8 -1 15 5 15 8 0 7 6 -1 20 -16 25 -32 26
-19 1 8 -14 7 -20 -4 -25 -9 -3 -16 1 -16 9 -3 32 -4 36 -15 43 -6 4 -13 15
-17 25 -4 11 -15 17 -25 15 -11 -2 -25 2 -33 8 -28 20 -68 33 -74 24z"/>
<path d="M2972 3868 c3 -7 15 -14 27 -14 28 -2 21 20 -8 24 -16 3 -22 -1 -19
-10z"/>
<path d="M1311 3851 c-7 -5 -12 -13 -10 -18 2 -5 12 -1 22 9 18 19 12 24 -12
9z"/>
<path d="M2810 3844 c1 -22 23 -54 38 -54 6 0 14 -5 18 -12 4 -7 3 -8 -4 -4
-7 4 -12 3 -12 -3 0 -18 18 -21 25 -4 4 12 -1 24 -15 35 -19 15 -20 19 -6 24
9 3 13 10 10 15 -8 14 -26 11 -18 -3 4 -7 -2 -4 -14 6 -22 19 -22 19 -22 0z"/>
<path d="M415 3841 c-26 -11 -52 -40 -75 -86 l-19 -38 24 23 c13 12 29 35 35
51 7 16 16 29 21 29 15 0 61 -49 55 -58 -3 -5 3 -17 14 -27 24 -22 26 -45 3
-45 -14 0 -14 -2 2 -20 10 -11 26 -20 37 -20 10 0 18 -7 18 -15 0 -9 9 -15 25
-15 14 0 33 -9 42 -20 10 -11 23 -20 30 -20 7 0 13 -11 13 -25 0 -22 4 -25 33
-25 39 0 51 8 37 25 -14 17 -3 42 21 48 20 5 20 6 0 26 -23 23 -26 37 -11 46
8 5 7 11 -1 21 -6 8 -7 14 -2 14 5 0 16 -9 26 -20 11 -14 27 -20 48 -18 43 3
47 18 5 18 -28 0 -42 8 -67 35 -26 28 -39 35 -71 35 -47 0 -49 -14 -5 -36 l32
-17 -27 -9 c-16 -6 -28 -14 -28 -19 0 -5 -10 -7 -22 -5 -13 3 -27 5 -32 5 -4
1 -5 8 -2 17 4 11 2 15 -8 11 -9 -4 -22 7 -35 29 -23 39 -20 54 10 54 29 0 23
19 -8 25 -16 4 -43 13 -61 21 -18 8 -34 14 -35 13 -1 0 -11 -4 -22 -8z"/>
<path d="M1890 3803 c-24 -25 -24 -26 -6 -37 47 -27 141 -96 208 -150 39 -33
79 -60 89 -61 23 -2 71 -34 64 -44 -2 -5 3 -15 13 -22 15 -13 16 -12 3 4 -13
17 -4 24 15 10 17 -14 -70 70 -136 130 -36 33 -57 54 -48 47 9 -6 22 -9 28 -5
5 3 10 1 10 -4 0 -6 3 -10 8 -9 4 1 25 -6 46 -15 56 -24 55 -14 -1 21 -26 16
-88 55 -138 87 -121 77 -126 78 -155 48z m210 -168 c19 -14 30 -25 24 -25 -10
1 -73 50 -63 50 3 0 20 -11 39 -25z m74 -64 c-2 -3 -12 3 -22 13 -16 17 -16
18 5 5 12 -7 20 -15 17 -18z"/>
<path d="M1447 3752 c-9 -16 -32 -40 -52 -53 -19 -13 -35 -27 -35 -31 0 -19
20 -15 50 10 18 15 40 27 49 27 11 0 17 11 19 38 4 44 -7 48 -31 9z"/>
<path d="M1540 3755 c0 -15 18 -40 24 -34 3 3 -1 14 -9 25 -8 10 -14 15 -15 9z"/>
<path d="M2990 3739 c12 -21 37 -35 47 -25 6 6 -36 45 -50 46 -4 0 -3 -9 3
-21z"/>
<path d="M3120 3731 c0 -5 5 -13 10 -16 6 -3 10 -2 10 4 0 5 -4 13 -10 16 -5
3 -10 2 -10 -4z"/>
<path d="M2930 3711 c13 -25 13 -34 0 -26 -13 8 -13 -5 0 -25 8 -13 10 -12 10
3 0 9 4 17 9 17 5 0 12 -8 14 -17 4 -15 5 -14 6 3 0 12 -7 31 -18 42 -23 27
-35 28 -21 3z"/>
<path d="M3050 3696 c0 -2 8 -10 18 -17 15 -13 16 -12 3 4 -13 16 -21 21 -21
13z"/>
<path d="M2772 3654 c-7 -8 -8 -14 -3 -14 10 0 25 19 20 25 -2 1 -10 -3 -17
-11z"/>
<path d="M2448 3648 c11 -14 52 -31 52 -22 0 2 -15 11 -32 20 -28 14 -31 15
-20 2z"/>
<path d="M2940 3631 c0 -5 7 -14 15 -21 12 -10 15 -10 15 3 0 8 -7 17 -15 21
-8 3 -15 2 -15 -3z"/>
<path d="M3105 3630 c-3 -5 -1 -10 4 -10 6 0 11 5 11 10 0 6 -2 10 -4 10 -3 0
-8 -4 -11 -10z"/>
<path d="M3340 3636 c0 -2 7 -7 16 -10 8 -3 12 -2 9 4 -6 10 -25 14 -25 6z"/>
<path d="M7421 3599 c-1 -9 7 -25 17 -36 9 -10 14 -14 10 -8 -4 6 -12 22 -17
36 -6 15 -10 18 -10 8z"/>
<path d="M3133 3585 c0 -8 6 -15 13 -15 6 0 14 7 18 15 3 10 -1 15 -13 15 -10
0 -18 -7 -18 -15z"/>
<path d="M2590 3570 c46 -25 64 -25 22 0 -18 11 -38 20 -45 20 -6 -1 4 -9 23
-20z"/>
<path d="M2667 3551 c-14 -28 -13 -41 4 -41 4 0 9 16 11 35 2 19 3 35 2 35 -2
0 -9 -13 -17 -29z"/>
<path d="M2800 3555 c-6 -8 -10 -19 -8 -26 2 -6 9 0 16 15 13 29 10 33 -8 11z"/>
<path d="M2190 3542 c0 -4 10 -13 23 -21 22 -14 22 -14 3 8 -20 22 -26 25 -26
13z"/>
<path d="M3127 3524 c3 -8 11 -14 19 -14 21 0 17 17 -5 23 -14 3 -18 1 -14 -9z"/>
<path d="M934 3519 c-3 -6 -1 -16 4 -21 8 -8 11 -5 9 11 -1 24 -3 25 -13 10z"/>
<path d="M6055 3518 c-159 -13 -393 -79 -505 -143 -14 -8 -45 -25 -70 -39
-204 -110 -411 -338 -539 -595 -92 -183 -125 -331 -126 -571 0 -98 -4 -168
-10 -172 -6 -5 -6 -8 1 -8 10 0 27 -65 29 -110 0 -8 3 -20 7 -25 3 -6 18 -49
32 -97 28 -91 128 -298 164 -337 8 -8 31 -37 52 -65 44 -59 135 -156 146 -156
4 0 3 5 -4 12 -16 16 -15 31 1 22 6 -4 1 5 -13 21 -14 16 -19 25 -12 21 6 -4
12 -2 12 4 0 5 -16 18 -35 27 -19 9 -35 20 -35 25 0 4 22 -4 49 -18 27 -15 47
-32 45 -39 -3 -6 18 -22 46 -35 34 -16 50 -29 50 -42 0 -10 7 -21 15 -24 8 -4
12 -10 9 -15 -7 -12 9 -12 22 1 6 6 15 5 24 -1 12 -9 11 -10 -5 -4 -14 4 -17
3 -10 -4 10 -10 186 -90 405 -183 58 -25 114 -42 143 -44 43 -2 46 -1 30 12
-24 18 -16 17 51 -6 31 -10 54 -15 51 -10 -8 13 0 12 65 -5 66 -18 63 -18 54
-3 -5 8 4 9 32 5 22 -4 67 -2 100 3 32 6 79 13 103 15 55 6 151 36 151 47 0 4
9 8 21 8 13 0 18 4 13 12 -5 8 0 9 14 6 12 -4 22 -2 22 3 0 5 7 9 16 9 8 0 12
5 8 11 -4 8 4 9 27 5 19 -3 28 -3 22 0 -19 8 10 34 37 34 13 0 19 4 14 12 -5
8 0 9 15 5 13 -3 21 -3 18 0 -8 7 16 32 26 26 10 -6 38 23 30 31 -4 3 2 6 13
6 11 0 26 9 34 20 8 11 23 20 33 20 10 0 15 5 12 10 -3 6 -2 10 4 10 6 0 26
15 45 34 19 19 37 32 40 29 3 -4 6 -1 6 5 0 7 7 12 16 12 8 0 13 4 9 9 -7 12
22 41 41 41 8 0 12 5 9 10 -3 6 3 10 14 10 27 0 51 10 51 21 0 6 -8 5 -19 -1
-25 -13 -36 3 -17 23 8 8 12 17 9 21 -4 3 -1 6 5 6 7 0 12 7 12 15 0 8 4 15
10 15 5 0 13 12 16 27 7 27 13 37 45 72 8 9 13 23 11 29 -2 7 0 12 5 12 13 0
54 76 46 84 -3 3 -1 6 6 6 7 0 9 4 6 10 -3 5 -2 10 4 10 9 0 27 56 23 73 -1 4
2 7 8 7 5 0 10 12 10 26 0 14 4 23 9 20 5 -4 7 3 4 14 -3 12 0 20 7 20 10 0
10 3 0 15 -9 11 -9 15 -1 15 7 0 9 9 5 25 -5 22 -4 24 12 18 17 -6 17 -5 5 10
-8 10 -11 20 -8 24 4 3 2 14 -4 24 -7 14 -6 19 2 19 8 0 9 4 0 13 -6 8 -8 16
-5 20 21 20 -10 267 -47 377 -19 58 -32 60 -23 5 5 -27 8 -62 8 -77 -1 -15 3
-25 7 -22 5 3 10 -5 10 -18 1 -21 3 -35 8 -48 1 -3 4 -67 7 -142 5 -129 -3
-199 -24 -212 -4 -2 -7 22 -8 55 -1 32 -7 66 -14 74 -8 9 -15 42 -17 73 -3 31
-5 63 -5 70 -2 20 -18 13 -18 -8 0 -11 -7 -23 -15 -26 -8 -4 -15 -12 -15 -20
0 -8 -4 -14 -10 -14 -5 0 -10 -11 -10 -24 0 -14 5 -28 10 -31 6 -3 10 -16 10
-28 0 -13 7 -33 16 -45 15 -21 11 -48 -6 -37 -4 3 -11 -7 -15 -22 -4 -17 -2
-29 4 -31 8 -3 8 -9 0 -23 -14 -26 15 -37 40 -15 10 9 23 16 29 16 15 0 16
-26 2 -35 -5 -3 -10 -15 -10 -26 0 -25 -45 -123 -76 -164 -12 -16 -34 -54 -48
-82 -15 -29 -33 -53 -40 -53 -8 0 -36 18 -62 40 -45 37 -50 39 -62 23 -10 -14
-9 -19 3 -26 8 -4 15 -15 15 -24 0 -12 3 -13 15 -3 12 10 21 8 50 -10 19 -12
35 -26 35 -30 0 -5 -28 -32 -62 -61 -35 -28 -79 -64 -98 -80 -136 -115 -236
-185 -350 -245 -30 -16 -56 -32 -58 -36 -5 -10 -95 -38 -112 -34 -8 1 -34 8
-57 14 -44 13 -49 12 -148 -33 -87 -40 -189 -37 -178 5 3 11 9 20 13 20 5 0 6
8 3 19 -3 10 -1 21 4 24 15 10 53 -4 53 -19 0 -8 5 -14 10 -14 6 0 10 5 10 10
0 7 17 8 48 4 39 -5 52 -2 75 16 22 18 25 25 16 36 -7 8 -9 17 -5 21 10 11
-36 53 -57 53 -11 0 -28 -7 -38 -16 -16 -14 -18 -14 -23 4 -7 22 -48 34 -108
32 -34 0 -38 2 -38 24 0 13 -4 26 -10 28 -5 2 -10 21 -12 43 -1 22 -5 42 -10
45 -4 3 4 18 17 32 15 16 22 33 19 42 -9 22 22 21 35 -1 5 -10 13 -15 16 -11
8 8 -26 57 -40 58 -14 0 -37 -39 -30 -51 4 -5 3 -9 -2 -8 -26 5 -42 -4 -47
-26 -4 -14 -11 -23 -16 -20 -5 3 -11 1 -15 -4 -3 -6 -12 -8 -20 -4 -18 6 -45
-14 -45 -34 0 -15 59 -105 73 -111 4 -2 7 -8 7 -14 0 -7 -14 -8 -36 -5 -30 5
-34 4 -24 -8 6 -8 9 -19 5 -24 -8 -15 -80 -32 -99 -25 -12 5 -15 2 -10 -11 6
-15 3 -16 -27 -10 -19 4 -46 14 -61 21 -15 8 -47 14 -72 14 -31 0 -53 7 -73
23 -41 33 -111 77 -123 77 -5 0 -10 5 -10 10 0 6 -4 10 -10 10 -5 0 -20 9 -32
20 -70 62 -106 89 -112 83 -3 -3 -6 1 -6 10 0 9 -14 24 -31 32 -17 9 -28 19
-25 22 3 3 -14 24 -37 47 -23 22 -46 49 -52 58 -5 9 -25 38 -43 64 -18 26 -29
51 -25 55 5 4 30 16 58 27 27 11 51 24 53 31 5 14 -24 15 -33 1 -3 -5 -17 -10
-31 -10 -13 0 -24 -4 -24 -10 0 -19 -39 -10 -52 13 -6 12 -13 62 -15 111 -1
48 -7 93 -12 100 -13 16 -42 155 -44 212 -3 91 11 190 48 354 8 36 14 71 15
79 0 16 -13 7 -16 -12 -7 -39 -13 -65 -23 -89 -33 -86 -54 -336 -38 -452 3
-21 2 -48 -3 -61 -7 -18 -4 -30 11 -49 11 -14 15 -26 9 -26 -7 0 -8 -6 -2 -17
5 -10 7 -24 5 -30 -3 -7 1 -13 7 -13 8 0 11 -10 8 -25 -3 -13 -1 -26 4 -27 8
-3 18 -38 22 -80 1 -9 8 -23 15 -32 11 -13 11 -16 0 -16 -9 0 -10 -3 -2 -11 6
-6 8 -23 3 -43 -6 -28 -5 -33 9 -29 11 3 24 -11 41 -44 14 -26 33 -56 43 -67
19 -22 22 -36 7 -36 -5 0 -6 -8 -3 -17 6 -16 5 -16 -10 -4 -9 7 -15 17 -12 21
3 4 -11 20 -30 35 -20 14 -35 32 -33 38 1 7 -6 27 -16 45 -9 19 -15 36 -12 39
3 3 -3 18 -12 32 -21 31 -46 82 -47 96 0 6 -5 17 -10 25 -5 8 -10 23 -11 33
-1 9 -3 18 -4 20 -1 1 -4 11 -5 22 -6 41 -17 102 -30 164 -8 40 -12 111 -10
190 2 69 4 138 4 153 0 16 6 28 12 28 6 0 9 7 5 15 -3 9 1 15 11 15 13 0 13 3
3 15 -7 8 -8 15 -2 15 5 0 8 14 7 30 -1 17 1 30 6 30 4 0 6 9 4 20 -2 11 1 20
7 20 6 0 8 9 5 20 -3 14 0 20 11 20 8 0 13 3 10 6 -3 3 5 34 18 70 12 35 20
64 16 64 -4 0 -1 4 7 9 8 5 16 17 17 27 2 9 6 20 11 23 4 3 9 13 11 21 2 8 7
16 12 18 5 2 6 10 3 18 -3 9 1 14 12 14 9 0 13 5 10 10 -3 6 -2 10 3 10 6 0
13 11 16 25 4 17 11 23 23 18 12 -5 15 -2 10 10 -4 11 1 25 13 37 11 11 17 20
14 20 -3 0 5 15 17 33 39 57 243 247 265 247 4 0 17 9 29 20 27 25 205 113
228 112 9 0 17 3 17 7 0 5 10 12 23 16 130 43 277 75 344 75 28 0 53 4 55 8 2
4 35 5 75 2 39 -3 69 -2 66 2 -7 12 18 9 62 -8 22 -8 108 -32 190 -54 160 -41
205 -56 273 -90 24 -12 46 -19 49 -16 7 7 -91 56 -157 79 -30 10 -59 23 -65
29 -7 8 -4 9 10 3 11 -4 56 -20 100 -35 79 -27 156 -63 185 -87 8 -6 39 -29
68 -51 57 -42 138 -111 214 -181 57 -52 73 -49 26 5 -179 210 -352 325 -618
412 -180 59 -347 77 -555 60z m88 -2363 c-3 -13 -9 -22 -14 -19 -10 6 -12 38
-3 47 13 12 21 -3 17 -28z m-88 -5 c3 -5 12 -7 19 -4 8 3 17 1 21 -5 4 -7 -7
-11 -29 -11 -25 0 -36 4 -36 15 0 17 16 20 25 5z m168 -7 c-7 -2 -19 -2 -25 0
-7 3 -2 5 12 5 14 0 19 -2 13 -5z m-328 -13 c3 -5 1 -10 -4 -10 -6 0 -11 5
-11 10 0 6 2 10 4 10 3 0 8 -4 11 -10z m20 -54 l47 -23 -36 -7 c-49 -9 -68 -2
-88 34 -17 30 -17 30 6 24 13 -3 45 -16 71 -28z m175 14 c0 -5 -7 -10 -16 -10
-8 0 -12 5 -9 10 3 6 10 10 16 10 5 0 9 -4 9 -10z m-42 -64 c-7 -8 -15 -12
-17 -11 -5 6 10 25 20 25 5 0 4 -6 -3 -14z"/>
<path d="M7500 3511 c0 -5 7 -11 15 -15 8 -3 15 -1 15 3 0 5 -7 11 -15 15 -8
3 -15 1 -15 -3z"/>
<path d="M3116 3491 c-3 -5 1 -11 9 -15 8 -3 15 -1 15 4 0 13 -18 22 -24 11z"/>
<path d="M2325 3460 c10 -11 20 -20 23 -20 3 0 -3 9 -13 20 -10 11 -20 20 -23
20 -3 0 3 -9 13 -20z"/>
<path d="M3386 3472 c-4 -7 3 -14 21 -18 15 -4 35 -12 43 -18 13 -10 13 -9 1
7 -7 9 -22 17 -31 17 -10 0 -20 5 -22 12 -3 9 -6 9 -12 0z"/>
<path d="M2058 3454 c12 -22 40 -49 46 -43 2 2 -10 18 -26 34 -21 21 -27 24
-20 9z"/>
<path d="M3220 3456 c0 -8 5 -18 12 -22 7 -5 9 -2 5 9 -3 9 -1 18 6 21 7 2 4
5 -5 5 -10 1 -18 -5 -18 -13z"/>
<path d="M3065 3439 c-4 -6 -4 -13 -1 -16 3 -3 1 -12 -5 -19 -11 -13 -15 -122
-5 -132 4 -3 12 0 19 8 6 7 7 10 1 7 -7 -4 -11 10 -12 39 -2 28 2 43 8 39 5
-3 10 -21 11 -38 1 -31 1 -31 9 -7 7 21 8 22 9 5 1 -12 5 -25 10 -30 5 -6 19
-28 31 -50 12 -22 20 -30 17 -17 -7 29 -3 28 33 -9 21 -23 30 -42 30 -66 0
-19 4 -32 10 -28 5 3 7 12 3 20 -3 8 -1 15 5 15 6 0 16 -16 22 -35 6 -19 16
-35 21 -35 11 0 12 17 0 24 -5 3 -14 25 -20 50 -6 24 -13 52 -17 62 -5 16 -4
16 5 4 7 -10 11 -11 11 -2 0 6 3 11 8 11 20 -3 32 2 26 12 -5 8 -8 8 -13 0 -5
-7 -20 2 -44 25 -20 20 -41 33 -47 29 -7 -4 -10 0 -8 11 2 12 -2 18 -12 16
-12 -2 -12 0 2 11 11 9 13 18 7 29 -6 11 -5 19 2 24 15 9 -9 24 -28 17 -10 -4
-11 -9 -2 -19 11 -13 5 -34 -10 -34 -16 0 -53 40 -48 52 6 17 -19 42 -28 27z"/>
<path d="M3122 3433 c6 -7 14 -13 19 -13 5 0 9 6 9 13 0 7 -9 13 -19 13 -15 0
-17 -3 -9 -13z"/>
<path d="M7675 3428 c-2 -7 -9 -32 -15 -55 -6 -23 -21 -49 -33 -58 -20 -15
-21 -17 -4 -26 9 -6 15 -14 12 -20 -4 -5 0 -9 8 -9 27 0 42 32 42 89 0 55 1
56 34 67 26 8 30 12 16 17 -27 11 -55 8 -60 -5z"/>
<path d="M2370 3426 c0 -2 8 -10 18 -17 15 -13 16 -12 3 4 -13 16 -21 21 -21
13z"/>
<path d="M3035 3420 c-3 -5 -1 -10 4 -10 6 0 11 5 11 10 0 6 -2 10 -4 10 -3 0
-8 -4 -11 -10z"/>
<path d="M3529 3395 c62 -36 203 -97 209 -91 5 6 -224 116 -242 116 -6 0 9
-12 33 -25z"/>
<path d="M2425 3380 c10 -11 20 -20 23 -20 3 0 -3 9 -13 20 -10 11 -20 20 -23
20 -3 0 3 -9 13 -20z"/>
<path d="M3027 3363 c-4 -3 -7 -20 -6 -37 l1 -31 9 34 c10 33 8 47 -4 34z"/>
<path d="M3275 3360 c3 -5 8 -10 11 -10 2 0 4 5 4 10 0 6 -5 10 -11 10 -5 0
-7 -4 -4 -10z"/>
<path d="M7539 3336 c-8 -9 2 -76 12 -76 5 0 9 5 9 11 0 6 9 8 20 4 11 -3 20
-2 20 3 0 6 -5 12 -11 14 -5 2 -11 12 -13 23 -3 19 -26 32 -37 21z"/>
<path d="M3296 3311 c-11 -18 6 -42 25 -36 12 4 19 2 19 -6 0 -7 3 -10 6 -6 7
6 -27 56 -38 57 -4 0 -9 -4 -12 -9z m24 -21 c0 -5 -2 -10 -4 -10 -3 0 -8 5
-11 10 -3 6 -1 10 4 10 6 0 11 -4 11 -10z"/>
<path d="M2845 3300 c3 -5 11 -10 16 -10 6 0 7 5 4 10 -3 6 -11 10 -16 10 -6
0 -7 -4 -4 -10z"/>
<path d="M3752 3299 c2 -6 31 -22 63 -36 192 -79 257 -104 261 -100 3 3 -30
19 -73 37 -43 17 -107 45 -143 62 -94 44 -112 50 -108 37z"/>
<path d="M6129 3306 c-1 -3 -2 -9 -3 -13 -1 -5 -5 -13 -9 -20 -4 -6 -3 -14 2
-18 6 -3 8 -12 5 -19 -6 -17 9 -22 91 -31 74 -9 76 -10 65 -40 -8 -20 -6 -25
12 -31 16 -5 27 0 39 15 17 21 45 20 62 -3 5 -7 7 -3 5 9 -2 11 -10 20 -17 20
-26 0 -21 20 9 40 16 11 30 25 30 31 0 22 -29 36 -59 29 -17 -4 -32 -2 -36 5
-7 12 -41 5 -64 -13 -23 -19 -86 -37 -89 -27 -2 6 -11 10 -19 10 -11 0 -14 7
-9 24 3 14 2 28 -4 31 -5 3 -11 4 -11 1z m201 -121 c-7 -8 -19 -15 -26 -15 -8
0 -11 6 -8 15 4 8 15 15 26 15 17 0 18 -3 8 -15z"/>
<path d="M5865 3256 c-28 -16 -39 -29 -37 -42 5 -25 3 -25 46 -10 34 12 64 44
66 69 0 14 -35 6 -75 -17z"/>
<path d="M2920 3266 c0 -3 9 -10 20 -16 11 -6 20 -8 20 -6 0 3 -9 10 -20 16
-11 6 -20 8 -20 6z"/>
<path d="M5960 3250 c-11 -11 -20 -25 -20 -32 0 -9 3 -9 11 -1 6 6 18 9 25 6
17 -6 44 14 44 33 0 21 -37 17 -60 -6z"/>
<path d="M6441 3212 c-24 -24 -24 -24 -2 -17 16 5 29 1 46 -15 19 -18 32 -22
61 -17 20 3 39 9 42 12 12 12 -31 40 -76 50 -44 10 -49 9 -71 -13z"/>
<path d="M3330 3220 c0 -5 7 -10 15 -10 8 0 15 5 15 10 0 6 -7 10 -15 10 -8 0
-15 -4 -15 -10z"/>
<path d="M3260 3211 c0 -5 5 -13 10 -16 6 -3 10 -2 10 4 0 5 -4 13 -10 16 -5
3 -10 2 -10 -4z"/>
<path d="M5125 3128 c-146 -156 -249 -329 -314 -523 -48 -147 -62 -228 -68
-411 -6 -180 5 -286 47 -439 26 -98 115 -283 202 -421 64 -102 73 -113 76 -89
2 18 -4 38 -18 54 -11 14 -23 34 -27 44 -3 9 -9 17 -14 17 -5 0 -9 7 -9 15 0
8 -4 15 -10 15 -5 0 -10 6 -10 14 0 7 -7 19 -15 26 -9 7 -14 19 -11 27 3 8 2
12 -3 9 -17 -11 -147 281 -139 312 1 4 -3 17 -10 28 -12 24 -24 88 -26 144 -1
19 -5 38 -11 42 -6 4 -10 73 -10 170 0 168 11 247 57 403 35 121 140 331 210
420 68 87 119 149 157 188 25 26 42 47 39 47 -3 0 -45 -42 -93 -92z"/>
<path d="M5740 3206 c0 -23 -50 -56 -85 -56 -25 0 -43 -10 -75 -42 -24 -24
-49 -53 -58 -65 -8 -13 -19 -23 -24 -23 -6 0 -24 -12 -41 -26 l-31 -26 34 6
c26 4 38 0 52 -16 10 -12 18 -16 18 -10 0 7 6 12 13 12 7 0 18 20 25 45 7 25
17 45 23 45 6 0 17 7 25 15 9 8 20 15 27 15 6 0 2 -7 -9 -15 -10 -8 -14 -15
-8 -15 20 0 36 28 29 51 -6 18 -4 21 9 16 11 -4 16 -1 16 10 0 9 3 13 7 10 3
-4 17 0 31 9 13 8 26 13 30 10 7 -8 31 46 25 57 -7 13 -33 7 -33 -7z"/>
<path d="M6652 3203 c-19 -9 -32 -23 -32 -34 0 -11 -4 -19 -10 -19 -5 0 -10
-9 -10 -20 0 -11 5 -20 11 -20 5 0 7 -6 3 -12 -5 -9 -2 -9 9 1 15 12 17 11 17
-2 0 -17 36 -15 54 3 15 15 26 12 20 -5 -4 -8 -10 -13 -14 -10 -14 9 -21 -12
-7 -22 15 -12 36 -11 45 2 11 16 50 35 71 35 30 0 90 -32 96 -52 8 -22 28 -28
42 -13 10 11 3 21 -32 50 -25 20 -54 38 -66 40 -12 2 -27 9 -35 15 -7 7 -21 9
-32 6 -20 -7 -72 30 -72 51 0 19 -26 22 -58 6z"/>
<path d="M3380 3200 c0 -6 12 -15 28 -21 15 -6 40 -17 56 -25 16 -8 31 -12 34
-10 2 3 -23 19 -57 35 -34 17 -61 27 -61 21z"/>
<path d="M5783 3183 c-8 -34 -7 -63 4 -74 4 -4 9 17 11 47 3 59 -4 70 -15 27z"/>
<path d="M5973 3184 c-3 -8 -1 -20 6 -27 8 -8 11 -4 11 16 0 30 -7 35 -17 11z"/>
<path d="M5847 3147 c-10 -15 -12 -29 -6 -38 14 -22 11 -33 -6 -19 -12 10 -15
10 -15 -2 0 -17 26 -42 53 -51 14 -5 17 -1 17 24 0 22 6 32 19 36 12 3 21 16
23 33 3 22 0 30 -16 34 -38 10 -54 6 -69 -17z"/>
<path d="M6039 3158 c-1 -7 -1 -16 0 -20 0 -4 -13 -16 -29 -28 -27 -19 -41
-50 -23 -50 11 0 83 84 83 98 0 6 -7 12 -15 12 -8 0 -16 -6 -16 -12z"/>
<path d="M3522 3125 c9 -10 21 -16 28 -13 7 2 -1 10 -16 17 -27 12 -28 11 -12
-4z"/>
<path d="M4160 3126 c28 -17 50 -21 35 -7 -6 5 -21 12 -35 15 l-25 7 25 -15z"/>
<path d="M5747 3125 c-4 -8 -13 -15 -22 -15 -8 0 -15 -4 -15 -10 0 -18 29 -10
40 11 7 11 10 23 7 25 -2 3 -7 -2 -10 -11z"/>
<path d="M6376 3114 c4 -15 -1 -26 -16 -37 l-21 -15 24 -8 c21 -8 23 -12 15
-41 -9 -35 -27 -45 -29 -15 0 10 -3 12 -6 4 -2 -6 -9 -10 -14 -6 -5 3 -9 -6
-9 -19 0 -29 34 -54 72 -54 23 0 27 4 33 46 4 25 11 51 16 57 11 14 1 46 -12
38 -5 -3 -9 -2 -9 3 0 4 -11 22 -25 38 -20 25 -23 26 -19 9z"/>
<path d="M5336 3069 c-38 -34 -53 -55 -50 -67 4 -11 3 -13 -3 -5 -19 26 -140
-117 -127 -151 4 -10 1 -16 -8 -16 -8 0 -22 -17 -31 -37 l-17 -38 25 28 c14
15 25 25 25 21 0 -3 7 -1 15 6 12 10 20 9 40 -4 l26 -17 -21 -26 c-11 -14 -38
-39 -59 -56 -42 -32 -60 -81 -43 -114 5 -10 9 -39 10 -65 1 -41 -1 -48 -17
-48 -14 0 -61 -48 -49 -51 2 0 20 -1 41 -3 22 -2 42 -9 47 -15 5 -9 9 -8 14 4
4 11 12 14 25 10 16 -5 19 -1 18 27 -2 26 3 35 26 46 15 7 27 17 27 23 0 15
-16 10 -34 -10 -26 -29 -52 -32 -51 -7 1 12 7 31 13 43 7 12 9 29 6 38 -5 11
2 19 25 28 30 11 42 27 20 27 -5 0 -8 4 -5 9 4 5 7 28 8 51 1 26 4 36 10 28 6
-10 12 -9 23 6 13 18 20 15 16 -6 0 -4 9 -8 22 -7 12 0 34 -3 50 -7 23 -5 27
-3 27 15 0 15 -5 21 -17 19 -25 -4 -18 28 14 70 20 27 23 36 12 48 -10 13 -10
17 2 25 10 6 1 9 -27 9 -57 0 -74 -21 -50 -62 23 -39 10 -53 -40 -43 -23 4
-49 19 -66 37 -31 33 -32 50 -4 54 14 2 15 0 5 -12 -10 -12 -8 -13 12 -6 13 5
24 15 24 22 0 7 28 42 63 78 34 36 62 69 62 74 0 4 7 8 15 8 8 0 15 5 15 10 0
15 -26 12 -40 -5 -7 -8 -17 -15 -23 -15 -5 0 3 11 18 24 16 14 31 25 34 24 20
-2 31 4 31 17 0 27 -28 16 -84 -36z m-79 -114 c0 -8 -4 -12 -8 -9 -4 2 -10 -5
-14 -16 -6 -19 -25 -29 -25 -13 0 6 40 53 45 53 1 0 2 -7 2 -15z m93 -85 c-8
-5 -19 -10 -25 -10 -5 0 -3 5 5 10 8 5 20 10 25 10 6 0 3 -5 -5 -10z"/>
<path d="M6035 3060 c-22 -16 -40 -33 -39 -39 2 -27 5 -31 19 -31 8 0 15 -6
15 -14 0 -15 45 -17 68 -3 18 12 15 23 -13 35 -27 12 -36 35 -10 26 8 -4 22
-1 30 6 14 11 14 15 -1 31 -21 23 -20 24 -69 -11z"/>
<path d="M6155 3080 c-3 -5 1 -10 9 -10 9 0 16 5 16 10 0 6 -4 10 -9 10 -6 0
-13 -4 -16 -10z"/>
<path d="M5589 3031 c-1 -3 -1 -14 0 -23 1 -10 -2 -18 -7 -18 -10 0 -7 -30 3
-30 3 0 19 7 35 15 17 9 30 13 30 9 0 -4 7 -1 15 6 8 7 15 18 15 24 0 6 -7 2
-15 -8 -8 -11 -15 -14 -15 -8 0 7 -9 12 -21 12 -14 0 -19 5 -16 13 3 8 -1 14
-9 14 -8 0 -15 -3 -15 -6z"/>
<path d="M7820 3025 c-8 -9 -8 -15 -2 -15 18 0 42 12 42 21 0 14 -26 10 -40
-6z"/>
<path d="M5745 3009 c4 -5 -1 -19 -11 -30 -15 -17 -15 -19 -1 -19 9 0 21 9 27
20 11 21 6 40 -11 40 -6 0 -7 -5 -4 -11z"/>
<path d="M6998 2994 c-2 -54 3 -77 25 -105 33 -42 38 -35 15 24 -11 28 -21 62
-22 74 -4 35 -16 40 -18 7z"/>
<path d="M7813 2999 c-18 -5 -33 -12 -33 -15 0 -4 7 -3 16 0 14 5 15 4 5 -8
-6 -7 -9 -21 -5 -30 8 -20 -5 -21 -34 0 -20 14 -22 14 -22 0 0 -9 4 -16 9 -16
13 0 55 -60 47 -67 -3 -3 -14 1 -24 10 -34 31 -61 -20 -42 -79 9 -27 15 -33
21 -23 7 11 13 10 27 -8 20 -26 47 -17 36 12 -5 13 -4 16 4 11 16 -9 15 7 0
22 -9 9 -8 12 4 12 9 0 18 -5 20 -12 8 -23 38 -15 62 17 19 25 22 35 13 45
-10 10 -7 12 11 7 17 -4 22 -1 22 14 0 10 -6 19 -14 19 -8 0 -13 9 -12 23 1
15 7 22 21 22 32 0 29 19 -4 29 -17 5 -31 13 -31 17 0 11 -56 10 -97 -2z"/>
<path d="M7736 2991 c-3 -4 7 -13 22 -20 23 -10 25 -10 10 2 -10 8 -15 17 -11
20 3 4 1 7 -5 7 -6 0 -13 -4 -16 -9z"/>
<path d="M5698 2983 c7 -3 16 -2 19 1 4 3 -2 6 -13 5 -11 0 -14 -3 -6 -6z"/>
<path d="M6700 2978 c0 -5 9 -8 19 -8 11 0 22 3 24 8 3 4 -6 7 -19 7 -13 0
-24 -3 -24 -7z"/>
<path d="M5655 2950 c-4 -6 3 -10 14 -10 25 0 27 6 6 13 -8 4 -17 2 -20 -3z"/>
<path d="M7380 2948 c0 -11 62 -108 70 -108 4 0 10 -17 14 -39 3 -21 12 -44
20 -50 8 -7 17 -24 21 -39 7 -30 46 -92 58 -92 13 0 25 44 14 52 -8 5 -8 13 0
30 18 35 26 105 14 113 -6 3 -11 19 -11 36 0 25 -4 29 -26 29 -23 0 -26 3 -20
28 6 24 5 25 -6 7 -6 -11 -14 -22 -18 -25 -3 -3 -14 -16 -23 -30 -9 -13 -17
-20 -17 -14 0 6 7 19 15 30 17 22 20 54 4 54 -5 0 -7 6 -4 13 4 6 -6 -3 -22
-21 -15 -18 -31 -32 -35 -32 -3 0 -15 15 -27 33 -11 17 -21 29 -21 25z"/>
<path d="M6226 2921 c-4 -5 -2 -12 4 -16 14 -8 9 -55 -9 -83 -12 -20 -12 -25
-1 -32 22 -14 37 6 43 58 3 26 7 54 9 62 3 17 -37 27 -46 11z"/>
<path d="M6726 2914 c-3 -8 0 -14 6 -14 6 0 9 -3 6 -6 -4 -3 -18 2 -31 11 -20
13 -30 14 -47 5 -17 -9 -19 -14 -9 -26 6 -8 17 -14 24 -14 8 0 11 -8 8 -18 -3
-15 2 -18 32 -19 31 -1 36 2 32 18 -3 10 4 28 14 40 10 12 19 25 19 29 0 14
-49 8 -54 -6z"/>
<path d="M6461 2873 c-1 -19 -7 -23 -31 -23 -23 0 -30 -5 -30 -19 0 -22 23
-19 56 7 16 13 20 22 14 37 -8 19 -9 19 -9 -2z"/>
<path d="M7356 2838 c15 -29 29 -48 31 -41 4 11 -42 93 -52 93 -3 0 7 -24 21
-52z"/>
<path d="M5776 2861 c-3 -4 1 -25 9 -47 15 -42 34 -47 83 -22 27 14 28 28 2
35 -11 3 -20 13 -20 22 0 13 -9 17 -35 18 -19 1 -37 -2 -39 -6z"/>
<path d="M5994 2862 c4 -7 2 -12 -3 -12 -6 0 -11 -4 -11 -9 0 -10 48 -2 56 10
3 5 1 9 -5 9 -5 0 -17 3 -27 7 -12 4 -15 3 -10 -5z"/>
<path d="M5425 2831 c-10 -17 12 -21 25 -6 10 12 10 15 -3 15 -9 0 -18 -4 -22
-9z"/>
<path d="M6056 2832 c2 -3 -1 -11 -7 -19 -8 -9 -8 -13 -1 -13 16 0 26 20 15
30 -6 4 -8 5 -7 2z"/>
<path d="M5544 2775 c1 -14 5 -27 8 -31 9 -8 -16 -54 -29 -54 -6 0 -9 -9 -6
-21 4 -12 0 -25 -8 -30 -12 -8 -11 -12 5 -24 18 -14 18 -15 -10 -25 -16 -6
-44 -12 -61 -13 -27 -2 -34 -7 -39 -29 -3 -16 -12 -28 -20 -28 -8 0 -14 -9
-14 -20 0 -11 4 -20 8 -20 5 0 18 -9 31 -21 18 -17 27 -19 51 -10 26 9 30 8
30 -9 0 -10 -6 -20 -12 -23 -7 -3 -3 -4 9 -4 13 1 22 6 22 12 -3 25 2 35 17
35 13 0 14 3 4 15 -10 12 -7 15 15 21 16 4 24 12 21 20 -3 8 0 11 10 7 9 -3
14 2 14 16 0 12 4 21 9 21 5 0 16 3 25 6 12 5 16 0 16 -20 0 -20 6 -27 28 -32
15 -4 32 -11 39 -16 6 -5 23 -11 38 -14 22 -4 26 -2 21 11 -3 9 -6 30 -6 46 0
18 -4 27 -12 25 -53 -17 -68 -16 -68 2 0 10 -11 28 -23 41 -22 19 -25 20 -37
6 -20 -24 -24 -10 -5 19 16 25 16 26 0 26 -12 0 -15 5 -11 16 4 10 -1 22 -11
30 -17 13 -17 13 0 14 9 0 17 5 17 11 0 6 -6 9 -13 6 -16 -6 -41 20 -27 28 6
3 14 4 19 0 5 -3 12 -1 15 4 9 14 -20 21 -33 8 -8 -8 -11 -7 -11 6 0 9 -4 17
-9 17 -5 0 -8 -11 -7 -25z"/>
<path d="M7111 2786 c-8 -9 -11 -19 -7 -23 9 -9 29 13 24 27 -2 8 -8 7 -17 -4z"/>
<path d="M5674 2750 c0 -14 7 -20 23 -20 28 0 29 8 6 26 -24 18 -29 17 -29 -6z"/>
<path d="M6427 2755 c6 -17 5 -18 -9 -7 -13 10 -16 9 -21 -10 -4 -13 0 -33 10
-47 14 -22 14 -24 -1 -18 -9 3 -15 3 -14 -1 2 -10 -14 -46 -24 -53 -5 -3 4 -6
21 -6 19 0 27 5 24 13 -2 7 4 15 14 18 23 7 121 -38 129 -59 7 -17 13 -18 33
-6 9 6 11 18 6 40 -5 23 -16 36 -46 50 -29 14 -39 16 -39 6 0 -17 -37 -26 -44
-10 -2 7 -3 21 0 32 3 10 -6 31 -21 48 -17 21 -23 24 -18 10z"/>
<path d="M7150 2741 c0 -25 6 -27 13 -6 4 8 2 17 -3 20 -6 4 -10 -3 -10 -14z"/>
<path d="M7410 2728 c0 -19 18 -43 25 -36 9 9 -4 48 -16 48 -5 0 -9 -6 -9 -12z"/>
<path d="M6220 2710 c0 -17 8 -29 24 -36 21 -10 25 -9 30 9 7 27 -3 41 -19 27
-10 -8 -16 -7 -24 7 -9 16 -10 15 -11 -7z"/>
<path d="M5651 2684 c0 -11 3 -14 6 -6 3 7 2 16 -1 19 -3 4 -6 -2 -5 -13z"/>
<path d="M7219 2660 l-24 -19 29 8 c16 4 31 12 34 19 6 18 -13 14 -39 -8z"/>
<path d="M6333 2663 c-7 -2 -13 -11 -13 -18 0 -10 5 -11 25 -2 39 18 27 36
-12 20z"/>
<path d="M5270 2649 c0 -5 5 -7 10 -4 6 3 10 8 10 11 0 2 -4 4 -10 4 -5 0 -10
-5 -10 -11z"/>
<path d="M6055 2635 c-34 -33 -32 -46 4 -35 16 4 32 5 36 2 3 -4 3 1 0 10 -4
9 -2 19 4 23 6 3 11 10 11 16 0 17 -31 9 -55 -16z"/>
<path d="M7446 2618 c1 -24 6 -55 12 -70 6 -16 10 -28 7 -28 -2 0 2 -15 10
-34 8 -18 11 -36 8 -40 -4 -3 -1 -6 5 -6 6 0 9 -6 6 -14 -3 -8 -1 -32 5 -54
13 -45 23 -123 29 -209 1 -13 6 -23 11 -23 27 0 3 246 -39 400 -33 121 -56
154 -54 78z"/>
<path d="M7646 2645 c-3 -9 0 -15 9 -15 8 0 15 7 15 15 0 8 -4 15 -9 15 -5 0
-11 -7 -15 -15z"/>
<path d="M6980 2645 c0 -5 4 -16 8 -23 10 -16 42 -5 42 14 0 17 -17 18 -23 2
-4 -10 -8 -9 -16 2 -6 8 -11 11 -11 5z"/>
<path d="M7144 2631 c0 -11 4 -17 8 -15 4 3 8 12 8 20 0 8 -4 14 -8 14 -4 0
-8 -9 -8 -19z"/>
<path d="M6204 2606 c-7 -31 6 -88 22 -93 7 -2 10 14 8 48 -3 61 -19 86 -30
45z"/>
<path d="M5690 2609 c0 -5 5 -7 10 -4 6 3 10 8 10 11 0 2 -4 4 -10 4 -5 0 -10
-5 -10 -11z"/>
<path d="M6335 2590 c4 -6 11 -8 16 -5 14 9 11 15 -7 15 -8 0 -12 -5 -9 -10z"/>
<path d="M6470 2592 c0 -15 16 -30 38 -37 21 -6 23 -5 13 13 -10 18 -51 38
-51 24z"/>
<path d="M7030 2595 c0 -10 29 -24 34 -17 3 6 -3 12 -14 15 -11 3 -20 4 -20 2z"/>
<path d="M5776 2555 c-3 -8 -1 -15 3 -15 5 0 11 7 15 15 3 8 1 15 -3 15 -5 0
-11 -7 -15 -15z"/>
<path d="M6095 2548 c-15 -22 -14 -23 5 -26 12 -2 28 2 36 8 11 10 17 10 29 0
12 -10 19 -10 27 -2 9 9 9 12 0 12 -24 0 -27 2 -35 16 -12 21 -44 17 -62 -8z"/>
<path d="M5312 2527 c-12 -12 -22 -16 -22 -9 0 7 -4 12 -10 12 -5 0 -10 -9
-10 -20 0 -21 24 -27 35 -9 5 7 14 4 26 -7 18 -16 19 -16 19 14 0 40 -11 46
-38 19z"/>
<path d="M5986 2534 c-9 -22 -8 -24 9 -24 8 0 15 -4 15 -10 0 -5 5 -10 10 -10
6 0 9 14 8 30 -2 33 -31 42 -42 14z"/>
<path d="M6356 2522 c-3 -5 1 -18 9 -28 14 -18 15 -18 12 3 -4 27 -13 38 -21
25z"/>
<path d="M6128 2503 c7 -3 16 -2 19 1 4 3 -2 6 -13 5 -11 0 -14 -3 -6 -6z"/>
<path d="M5580 2491 c0 -5 7 -14 15 -21 12 -10 15 -10 15 3 0 8 -7 17 -15 21
-8 3 -15 2 -15 -3z"/>
<path d="M5840 2470 c6 -11 15 -18 20 -15 13 8 0 35 -16 35 -12 0 -12 -4 -4
-20z"/>
<path d="M6130 2480 c0 -5 5 -10 11 -10 5 0 7 5 4 10 -3 6 -8 10 -11 10 -2 0
-4 -4 -4 -10z"/>
<path d="M6765 2470 c-3 -5 -2 -10 4 -10 5 0 13 5 16 10 3 6 2 10 -4 10 -5 0
-13 -4 -16 -10z"/>
<path d="M7242 2468 c6 -18 28 -21 28 -4 0 9 -7 16 -16 16 -9 0 -14 -5 -12
-12z"/>
<path d="M6137 2443 c-2 -10 -8 -26 -12 -35 -5 -13 -2 -15 15 -11 12 3 19 11
16 19 -3 7 -1 16 4 19 15 9 12 25 -4 25 -7 0 -16 -8 -19 -17z"/>
<path d="M6406 2447 c3 -10 9 -15 12 -12 3 3 0 11 -7 18 -10 9 -11 8 -5 -6z"/>
<path d="M7595 2400 c2 -36 9 -105 15 -155 7 -51 8 -129 4 -180 -6 -77 -6
-228 -1 -287 1 -10 5 -18 9 -18 4 0 8 -7 8 -17 0 -18 39 -72 83 -114 44 -42
50 -35 9 8 -19 21 -48 65 -64 98 -28 58 -29 63 -22 165 10 153 6 322 -11 426
-19 120 -37 164 -30 74z"/>
<path d="M5380 2430 c0 -12 35 -31 44 -23 8 9 -14 33 -30 33 -8 0 -14 -4 -14
-10z"/>
<path d="M5631 2419 c0 -14 6 -34 15 -45 13 -16 15 -16 10 -2 -3 10 -1 20 4
23 16 10 12 28 -4 22 -9 -4 -17 1 -19 11 -3 11 -5 7 -6 -9z"/>
<path d="M6438 2402 c-16 -9 -28 -19 -28 -23 0 -6 46 -29 59 -29 7 0 31 52 31
66 0 10 -38 1 -62 -14z"/>
<path d="M3287 2399 c-24 -14 -21 -24 9 -38 25 -11 56 -5 37 8 -5 3 -14 14
-19 23 -7 12 -13 14 -27 7z"/>
<path d="M5540 2388 c0 -9 -6 -18 -12 -21 -7 -2 -10 -8 -6 -12 4 -4 15 0 24 9
12 13 14 20 5 29 -8 8 -11 7 -11 -5z"/>
<path d="M5604 2376 c1 -18 4 -22 14 -14 9 8 9 14 1 24 -16 19 -17 18 -15 -10z"/>
<path d="M5838 2393 c6 -3 12 -11 12 -19 0 -8 5 -14 11 -14 5 0 7 -4 4 -10
-13 -20 7 -32 25 -15 10 9 27 14 37 11 10 -3 25 -1 33 5 13 9 12 10 -2 5 -11
-3 -26 3 -37 16 -13 13 -34 21 -58 23 -21 1 -32 0 -25 -2z"/>
<path d="M6190 2385 c-6 -8 -10 -20 -7 -27 4 -8 6 -7 6 4 1 9 9 22 19 27 9 6
12 11 6 11 -6 0 -17 -7 -24 -15z"/>
<path d="M7015 2390 c-4 -7 -1 -16 6 -21 17 -10 26 8 11 23 -6 6 -12 6 -17 -2z"/>
<path d="M5093 2383 c-14 -5 -18 -43 -5 -43 12 0 32 23 32 37 0 13 -6 15 -27
6z"/>
<path d="M5278 2358 c-2 -19 -8 -22 -30 -20 -22 3 -28 -1 -28 -15 0 -11 -7
-28 -15 -39 -20 -27 -19 -30 19 -48 44 -21 49 -20 41 3 -4 14 0 23 13 30 17 9
21 7 26 -14 7 -28 24 -33 32 -10 4 10 15 12 34 9 24 -5 28 -2 32 21 5 21 2 25
-11 19 -9 -3 -26 -9 -38 -11 -13 -3 -23 -10 -23 -15 0 -5 -4 -7 -10 -3 -5 3
-7 12 -3 20 3 9 -1 15 -11 15 -19 0 -19 4 -7 48 8 25 7 32 -4 32 -7 0 -15 -10
-17 -22z m-33 -108 c3 -5 1 -10 -4 -10 -6 0 -11 5 -11 10 0 6 2 10 4 10 3 0 8
-4 11 -10z"/>
<path d="M6379 2353 c22 -38 28 -43 44 -37 24 9 21 24 -3 24 -11 0 -23 7 -26
15 -4 8 -10 15 -15 15 -6 0 -6 -7 0 -17z"/>
<path d="M6850 2345 c-19 -13 -45 -24 -58 -24 -12 -1 -37 -17 -56 -37 -21 -22
-39 -33 -46 -29 -8 5 -11 3 -8 -6 7 -22 50 -40 65 -27 15 12 18 32 3 23 -5 -3
-10 -1 -10 4 0 6 12 11 26 11 19 0 25 4 21 14 -4 10 0 14 11 14 38 -3 73 13
82 38 7 17 15 24 25 20 8 -3 15 -1 15 3 0 7 -26 23 -33 20 -1 0 -18 -11 -37
-24z"/>
<path d="M5127 2346 c-4 -10 -1 -13 8 -9 8 3 12 9 9 14 -7 12 -11 11 -17 -5z"/>
<path d="M5720 2330 c-13 -8 -12 -10 3 -10 9 0 17 5 17 10 0 12 -1 12 -20 0z"/>
<path d="M5990 2330 c0 -5 9 -10 19 -10 11 0 23 5 26 10 4 6 -5 10 -19 10 -14
0 -26 -4 -26 -10z"/>
<path d="M7267 2333 c-4 -3 -7 -11 -7 -17 0 -6 5 -5 12 2 6 6 9 14 7 17 -3 3
-9 2 -12 -2z"/>
<path d="M5510 2324 c0 -3 6 -12 14 -20 13 -12 15 -12 13 6 -1 17 -27 31 -27
14z"/>
<path d="M6900 2323 c0 -4 5 -15 10 -23 8 -13 10 -13 10 2 0 9 -4 20 -10 23
-5 3 -10 3 -10 -2z"/>
<path d="M5590 2310 c0 -6 7 -13 15 -16 8 -4 15 -12 15 -20 0 -8 5 -14 10 -14
11 0 13 20 4 44 -7 18 -44 22 -44 6z"/>
<path d="M5898 2313 c-2 -5 -2 -22 1 -39 l6 -32 31 17 c31 17 31 17 13 39
l-18 23 -4 -28 -4 -28 -2 28 c-1 25 -15 37 -23 20z"/>
<path d="M6327 2299 c-9 -6 -17 -14 -17 -19 0 -16 30 -11 37 5 8 21 1 25 -20
14z"/>
<path d="M7018 2281 c-16 -16 -16 -18 2 -34 26 -22 37 -21 50 2 13 26 13 31
-5 31 -8 0 -15 5 -15 10 0 15 -13 11 -32 -9z"/>
<path d="M4357 2282 c-4 -4 -10 -35 -16 -68 -5 -32 -23 -121 -40 -196 -29
-130 -37 -177 -27 -167 7 6 96 433 92 437 -2 2 -6 -1 -9 -6z"/>
<path d="M5707 2264 c-12 -12 -8 -24 8 -24 8 0 15 -9 15 -20 0 -11 5 -20 10
-20 6 0 10 6 10 13 -1 18 -35 59 -43 51z"/>
<path d="M7240 2260 c0 -5 5 -10 10 -10 6 0 10 5 10 10 0 6 -4 10 -10 10 -5 0
-10 -4 -10 -10z"/>
<path d="M3660 2239 c0 -18 2 -19 15 -9 15 12 12 30 -6 30 -5 0 -9 -10 -9 -21z"/>
<path d="M6865 2249 c-5 -5 -23 -21 -40 -36 -28 -25 -28 -27 -11 -37 11 -6 26
-19 35 -28 42 -47 77 12 46 77 -9 19 -17 35 -18 35 -1 -1 -6 -5 -12 -11z"/>
<path d="M5033 2238 c-20 -26 -21 -47 -4 -110 14 -54 19 -63 29 -51 7 7 10 18
6 24 -4 6 0 15 7 20 10 6 8 9 -8 9 -29 0 -29 9 2 55 25 35 25 38 8 51 -23 17
-28 17 -40 2z"/>
<path d="M5380 2231 c0 -21 13 -41 26 -41 17 0 17 5 4 31 -11 20 -30 26 -30
10z"/>
<path d="M5825 2220 c-3 -5 -1 -10 4 -10 6 0 11 5 11 10 0 6 -2 10 -4 10 -3 0
-8 -4 -11 -10z"/>
<path d="M5626 2204 c-4 -10 -1 -14 6 -12 15 5 23 28 10 28 -5 0 -13 -7 -16
-16z"/>
<path d="M5953 2208 c2 -7 10 -12 16 -10 6 1 11 -2 11 -8 0 -5 -5 -10 -11 -10
-16 0 -6 -54 11 -58 8 -1 29 9 45 24 17 14 24 23 18 19 -8 -4 -13 0 -13 11 0
13 -3 14 -13 5 -19 -15 -29 -3 -16 20 8 17 6 19 -21 19 -21 0 -30 -4 -27 -12z"/>
<path d="M6077 2213 c-4 -3 -7 -14 -7 -24 0 -24 26 -14 33 12 5 18 -12 27 -26
12z"/>
<path d="M6656 2205 c-3 -8 -1 -15 4 -15 6 0 10 7 10 15 0 8 -2 15 -4 15 -2 0
-6 -7 -10 -15z"/>
<path d="M5705 2180 c-3 -5 -1 -10 4 -10 6 0 11 5 11 10 0 6 -2 10 -4 10 -3 0
-8 -4 -11 -10z"/>
<path d="M6455 2180 c3 -5 8 -10 11 -10 2 0 4 5 4 10 0 6 -5 10 -11 10 -5 0
-7 -4 -4 -10z"/>
<path d="M6775 2170 c3 -5 8 -10 11 -10 2 0 4 5 4 10 0 6 -5 10 -11 10 -5 0
-7 -4 -4 -10z"/>
<path d="M3451 2128 c-5 -13 -8 -25 -6 -28 1 -3 5 -14 10 -25 6 -17 9 -15 21
19 8 21 11 42 8 47 -9 16 -24 10 -33 -13z"/>
<path d="M6550 2135 c-7 -9 -11 -18 -8 -20 7 -8 38 5 38 15 0 17 -18 19 -30 5z"/>
<path d="M6612 2138 c5 -13 58 -31 58 -19 0 13 -24 31 -43 31 -10 0 -17 -5
-15 -12z"/>
<path d="M6262 2131 c-10 -6 -10 -10 3 -21 8 -7 15 -16 15 -21 0 -5 9 -18 20
-29 11 -11 20 -15 20 -10 0 6 7 10 15 10 15 0 40 38 31 48 -3 3 -6 2 -6 -3 0
-4 -8 -1 -17 7 -23 20 -64 29 -81 19z"/>
<path d="M6810 2115 c23 -24 50 -33 50 -17 0 15 -36 42 -55 42 -17 0 -16 -3 5
-25z"/>
<path d="M7529 2118 c-1 -7 -1 -19 0 -26 1 -7 -5 -15 -14 -18 -10 -4 -13 -13
-10 -25 4 -11 2 -19 -5 -19 -7 0 -10 -7 -6 -15 3 -8 1 -15 -3 -15 -5 0 -8 -16
-7 -35 2 -26 -1 -35 -12 -35 -12 0 -12 -3 -1 -16 10 -13 10 -17 -1 -24 -11 -7
-11 -11 0 -24 11 -14 10 -16 -4 -10 -19 7 -21 -7 -4 -24 9 -9 8 -12 -5 -12
-14 0 -16 -4 -8 -19 8 -15 7 -20 -5 -25 -13 -5 -14 -9 -4 -21 9 -10 9 -15 1
-15 -6 0 -11 -7 -11 -15 0 -8 -5 -15 -11 -15 -5 0 -8 -4 -4 -9 3 -5 -1 -16 -9
-24 -8 -8 -12 -18 -8 -21 3 -4 2 -10 -3 -14 -6 -4 -26 -42 -46 -84 -20 -43
-40 -74 -44 -70 -5 4 -5 2 -2 -5 4 -6 1 -18 -7 -26 -8 -8 -12 -17 -9 -21 4 -3
1 -6 -6 -6 -7 0 -9 -4 -6 -10 3 -5 -1 -10 -9 -10 -9 0 -16 -5 -16 -11 0 -6 -6
-17 -12 -24 -33 -37 -39 -46 -33 -55 4 -6 -1 -7 -12 -3 -16 6 -16 5 -4 -10 12
-16 18 -11 63 45 72 93 164 252 200 345 17 45 34 81 37 79 3 -2 6 11 7 29 1
49 24 113 43 118 13 4 13 5 -2 6 -12 1 -17 7 -13 19 2 9 7 46 11 82 4 36 9 73
11 83 3 9 1 17 -5 17 -6 0 -12 -6 -12 -12z"/>
<path d="M3314 2106 c-41 -18 -50 -34 -31 -53 14 -14 18 -13 46 6 17 12 31 31
31 42 0 22 -5 23 -46 5z"/>
<path d="M5873 2105 c-8 -22 6 -33 17 -15 13 20 12 30 0 30 -6 0 -13 -7 -17
-15z"/>
<path d="M3116 2084 c-20 -14 -36 -27 -36 -29 0 -13 45 -25 71 -20 24 5 29 12
29 35 0 38 -21 43 -64 14z"/>
<path d="M3596 2089 c-15 -14 -16 -21 -7 -33 6 -7 10 -20 9 -27 -2 -8 7 -15
21 -17 21 -3 23 -1 17 22 -6 26 8 37 17 14 3 -10 8 -10 16 -2 8 7 9 18 2 35
-5 13 -10 18 -10 11 -1 -10 -6 -9 -23 2 -21 12 -25 12 -42 -5z"/>
<path d="M5960 2089 c-22 -14 -36 -17 -38 -10 -2 6 -8 11 -13 11 -6 0 -7 -4
-4 -10 3 -5 -3 -10 -14 -10 -12 0 -21 -5 -21 -11 0 -5 5 -7 10 -4 6 3 10 2 10
-3 0 -17 54 -31 113 -30 48 2 57 5 57 20 0 10 5 18 10 18 6 0 10 7 10 15 0 8
-4 15 -10 15 -5 0 -10 -4 -10 -10 0 -18 -22 -10 -27 10 -7 26 -29 25 -73 -1z"/>
<path d="M6148 2092 c-32 -39 -53 -91 -41 -103 9 -9 8 -19 -3 -40 -10 -20 -11
-29 -3 -29 8 0 9 -14 4 -47 -14 -94 -12 -108 13 -111 12 -2 22 -8 22 -13 0
-18 18 -9 23 12 4 15 2 18 -7 10 -28 -24 -34 14 -10 65 13 26 14 37 5 48 -14
17 -5 136 15 183 14 37 4 51 -18 25z"/>
<path d="M3680 2090 c0 -5 4 -10 9 -10 6 0 13 5 16 10 3 6 -1 10 -9 10 -9 0
-16 -4 -16 -10z"/>
<path d="M6930 2087 c0 -8 -12 -20 -26 -27 -32 -17 -55 -60 -47 -88 7 -28 33
-17 33 14 0 13 4 24 10 24 5 0 19 19 30 42 23 48 23 48 10 48 -5 0 -10 -6 -10
-13z"/>
<path d="M5812 2066 c-8 -17 -8 -27 -1 -32 18 -11 33 13 23 37 -10 21 -10 21
-22 -5z"/>
<path d="M7007 2083 c-4 -3 -7 -19 -7 -34 0 -19 -6 -30 -20 -34 -26 -8 -26
-29 -1 -22 12 3 27 -4 40 -19 16 -19 25 -21 49 -15 31 9 72 33 72 41 0 3 -8
14 -16 25 -11 14 -18 16 -21 7 -3 -6 -8 -10 -13 -7 -4 3 -13 -2 -20 -10 -7 -8
-23 -15 -37 -15 -20 0 -22 3 -13 19 20 38 10 87 -13 64z"/>
<path d="M5455 2069 c-4 -6 -5 -12 -2 -15 2 -3 7 2 10 11 7 17 1 20 -8 4z"/>
<path d="M6379 2064 c-6 -8 -20 -14 -30 -14 -13 0 -19 -7 -19 -21 0 -15 5 -19
15 -15 8 3 15 2 15 -3 0 -4 11 -14 25 -21 13 -7 22 -17 19 -22 -8 -13 19 -68
33 -68 7 0 15 17 18 38 4 20 11 50 16 66 7 22 6 27 -5 23 -7 -3 -27 7 -44 23
-26 24 -33 26 -43 14z m81 -68 c0 -3 -4 -8 -10 -11 -5 -3 -10 -1 -10 4 0 6 5
11 10 11 6 0 10 -2 10 -4z"/>
<path d="M3845 2060 c-3 -5 1 -10 9 -10 9 0 16 5 16 10 0 6 -4 10 -9 10 -6 0
-13 -4 -16 -10z"/>
<path d="M5357 2063 c-12 -11 -8 -23 7 -23 7 0 19 7 26 15 10 12 9 15 -7 15
-11 0 -23 -3 -26 -7z"/>
<path d="M6960 2050 c0 -5 7 -10 16 -10 8 0 12 5 9 10 -3 6 -10 10 -16 10 -5
0 -9 -4 -9 -10z"/>
<path d="M7199 2043 c-13 -16 -12 -17 4 -4 16 13 21 21 13 21 -2 0 -10 -8 -17
-17z"/>
<path d="M4223 2029 c-30 -9 -55 -29 -35 -29 15 0 14 -130 -2 -210 -17 -87
-57 -199 -86 -241 -12 -16 -35 -32 -52 -37 -18 -4 -34 -14 -36 -20 -3 -9 4
-11 22 -6 15 3 26 2 26 -4 0 -16 -150 -165 -205 -202 -27 -19 -85 -53 -128
-76 l-79 -41 38 -32 c21 -17 44 -31 51 -31 21 0 63 23 63 34 0 7 9 18 19 26
11 7 18 17 16 21 -3 4 8 12 24 18 15 7 34 23 41 37 8 13 17 24 21 24 4 0 20
20 36 45 15 25 31 45 36 45 4 0 7 9 7 20 0 10 6 23 14 27 20 12 99 132 130
196 38 81 56 160 63 270 6 93 7 99 34 118 16 11 29 29 29 40 0 21 -1 21 -47 8z"/>
<path d="M4076 2017 c3 -10 9 -15 12 -12 3 3 0 11 -7 18 -10 9 -11 8 -5 -6z"/>
<path d="M5901 2003 c7 -10 15 -20 16 -22 2 -2 3 5 3 17 0 14 -6 22 -16 22
-14 0 -15 -3 -3 -17z"/>
<path d="M6705 2011 c-3 -6 -4 -15 0 -20 3 -5 1 -12 -5 -16 -5 -3 -10 1 -10 9
0 23 -17 19 -23 -5 -3 -12 -10 -18 -17 -14 -8 5 -10 -4 -6 -32 l6 -38 -15 40
c-8 22 -18 46 -20 54 -8 22 -27 -2 -31 -39 -3 -26 -1 -31 15 -28 10 2 17 -1
17 -7 -1 -5 -9 -8 -18 -7 -10 2 -18 -1 -18 -7 0 -5 -3 -18 -6 -28 -4 -14 -4
-15 4 -4 8 11 16 9 45 -13 20 -15 52 -32 71 -37 20 -5 36 -16 36 -23 0 -20 32
-44 37 -28 8 23 29 12 61 -33 18 -25 40 -49 50 -52 9 -4 24 -15 32 -25 8 -10
31 -21 50 -25 33 -6 34 -5 20 12 -13 16 -13 18 0 13 23 -8 40 22 27 49 -7 16
-14 20 -22 13 -18 -15 -88 -7 -119 14 -24 15 -27 22 -22 51 8 38 -1 44 -59 39
-47 -4 -105 22 -105 48 0 10 5 18 11 18 7 0 10 12 7 30 -3 17 -1 30 3 30 9 0
23 59 16 66 -3 3 -8 1 -12 -5z m-28 -73 c-3 -8 -6 -5 -6 6 -1 11 2 17 5 13 3
-3 4 -12 1 -19z m150 -170 c-3 -7 -5 -2 -5 12 0 14 2 19 5 13 2 -7 2 -19 0
-25z"/>
<path d="M6740 2009 c0 -5 5 -7 10 -4 6 3 10 8 10 11 0 2 -4 4 -10 4 -5 0 -10
-5 -10 -11z"/>
<path d="M3558 2003 c7 -3 16 -2 19 1 4 3 -2 6 -13 5 -11 0 -14 -3 -6 -6z"/>
<path d="M5525 1984 c-21 -16 -11 -34 18 -35 21 0 21 0 2 -9 -12 -4 -27 -16
-35 -26 -14 -16 -13 -17 10 -11 14 4 31 7 38 7 7 0 10 5 7 10 -7 12 34 30 52
23 6 -3 21 1 33 7 20 11 21 13 6 28 -14 14 -17 14 -34 -1 -25 -23 -42 -21 -42
2 0 22 -28 25 -55 5z"/>
<path d="M6020 1991 c0 -6 4 -13 10 -16 6 -3 7 1 4 9 -7 18 -14 21 -14 7z"/>
<path d="M4069 1986 c-3 -3 -19 -6 -37 -8 -18 -1 -32 -6 -32 -10 0 -4 -6 -7
-12 -5 -7 1 -14 -9 -16 -22 -3 -21 -1 -23 20 -18 12 4 33 7 45 7 12 0 27 9 33
21 11 19 10 46 -1 35z"/>
<path d="M5010 1974 c0 -8 8 -14 18 -14 20 -1 59 -28 54 -38 -2 -3 1 -8 6 -10
5 -1 12 5 14 15 5 19 -13 43 -32 43 -5 0 -10 4 -10 9 0 5 -11 9 -25 9 -15 0
-25 -6 -25 -14z"/>
<path d="M5867 1983 c-3 -5 -8 -22 -11 -39 -6 -24 -3 -33 10 -38 23 -9 30 0
15 18 -9 11 -10 20 -2 35 6 11 11 22 11 25 0 9 -18 7 -23 -1z"/>
<path d="M6730 1985 c0 -2 15 -12 33 -21 l32 -17 -19 22 c-17 19 -46 29 -46
16z"/>
<path d="M5100 1970 c0 -5 5 -10 10 -10 6 0 10 5 10 10 0 6 -4 10 -10 10 -5 0
-10 -4 -10 -10z"/>
<path d="M3204 1961 c5 -8 56 -3 56 5 0 2 -14 4 -31 4 -16 0 -28 -4 -25 -9z"/>
<path d="M6990 1950 c0 -5 5 -10 10 -10 6 0 10 5 10 10 0 6 -4 10 -10 10 -5 0
-10 -4 -10 -10z"/>
<path d="M3477 1934 c-4 -4 -7 -17 -7 -28 0 -19 1 -19 17 -3 12 11 14 20 7 27
-6 6 -13 7 -17 4z"/>
<path d="M5656 1925 c4 -8 8 -15 10 -15 2 0 4 7 4 15 0 8 -4 15 -10 15 -5 0
-7 -7 -4 -15z"/>
<path d="M8075 1916 c17 -14 62 -42 100 -60 105 -52 207 -60 218 -18 3 12 5
11 6 -6 1 -14 5 -20 12 -17 5 4 8 12 6 18 -2 7 6 19 19 27 20 14 13 15 -86 12
-114 -4 -181 8 -265 50 l-40 20 30 -26z"/>
<path d="M5690 1880 c0 -18 4 -29 10 -25 6 3 10 15 10 25 0 10 -4 22 -10 25
-6 4 -10 -7 -10 -25z"/>
<path d="M5755 1900 c-3 -5 -1 -10 4 -10 6 0 11 5 11 10 0 6 -2 10 -4 10 -3 0
-8 -4 -11 -10z"/>
<path d="M3920 1884 c-22 -26 -4 -44 44 -44 36 0 46 4 51 20 3 11 4 24 1 29
-9 14 -84 11 -96 -5z"/>
<path d="M5354 1885 c-5 -11 -3 -20 4 -23 19 -6 14 -19 -9 -25 -30 -8 -69 9
-69 31 0 14 -7 19 -30 19 -16 0 -30 -3 -30 -7 0 -4 -18 -25 -40 -46 -41 -41
-41 -49 2 -77 19 -12 29 -14 34 -5 5 7 11 5 21 -7 12 -18 13 -18 13 3 0 12 11
29 25 38 24 16 27 16 45 -1 11 -10 20 -14 20 -9 0 5 13 18 29 28 30 20 31 41
5 80 -13 19 -14 19 -20 1z"/>
<path d="M6025 1891 c-6 -11 9 -23 19 -14 9 9 7 23 -3 23 -6 0 -12 -4 -16 -9z"/>
<path d="M6075 1880 c3 -5 11 -10 16 -10 6 0 7 5 4 10 -3 6 -11 10 -16 10 -6
0 -7 -4 -4 -10z"/>
<path d="M6717 1873 c-12 -11 -8 -23 8 -23 8 0 15 7 15 15 0 16 -12 20 -23 8z"/>
<path d="M5619 1862 c-2 -7 -18 -14 -34 -15 -34 -3 -50 -36 -18 -38 10 0 30
-2 45 -4 32 -4 57 19 35 32 -8 4 -16 15 -19 23 -3 11 -6 12 -9 2z"/>
<path d="M6043 1852 c-14 -9 -8 -79 9 -99 16 -20 21 -8 6 16 -11 18 -11 23 2
32 12 8 12 12 2 16 -9 4 -10 8 -2 18 13 15 0 27 -17 17z"/>
<path d="M3690 1830 c0 -5 7 -10 15 -10 8 0 15 5 15 10 0 6 -7 10 -15 10 -8 0
-15 -4 -15 -10z"/>
<path d="M5755 1830 c-3 -5 -2 -10 4 -10 5 0 13 5 16 10 3 6 2 10 -4 10 -5 0
-13 -4 -16 -10z"/>
<path d="M6625 1820 c3 -5 8 -10 11 -10 2 0 4 5 4 10 0 6 -5 10 -11 10 -5 0
-7 -4 -4 -10z"/>
<path d="M5886 1791 c-17 -31 -13 -41 16 -41 10 0 18 -4 18 -10 0 -5 6 -10 14
-10 8 0 16 -7 20 -15 3 -8 12 -15 20 -15 24 0 31 22 11 36 -16 12 -17 18 -7
39 10 22 9 27 -5 32 -10 4 -23 -2 -34 -16 -21 -26 -40 -21 -32 9 8 29 -4 24
-21 -9z"/>
<path d="M5421 1794 c0 -11 3 -14 6 -6 3 7 2 16 -1 19 -3 4 -6 -2 -5 -13z"/>
<path d="M5490 1794 c0 -8 5 -12 10 -9 6 4 8 11 5 16 -9 14 -15 11 -15 -7z"/>
<path d="M5702 1798 c-7 -7 -12 -21 -12 -32 1 -18 3 -17 16 7 17 31 15 44 -4
25z"/>
<path d="M6207 1794 c-14 -14 -7 -35 11 -32 9 2 17 10 17 17 0 16 -18 25 -28
15z"/>
<path d="M6410 1790 c0 -5 5 -10 11 -10 5 0 7 5 4 10 -3 6 -8 10 -11 10 -2 0
-4 -4 -4 -10z"/>
<path d="M6373 1767 c4 -10 2 -26 -5 -36 -14 -23 -2 -71 17 -71 8 0 15 -9 15
-20 0 -11 7 -20 15 -20 8 0 15 9 15 20 0 11 -5 20 -12 20 -6 0 -3 9 7 20 10
11 27 20 37 20 13 0 17 4 12 13 -4 6 -3 9 1 4 11 -9 45 22 45 41 0 12 -3 12
-15 2 -8 -7 -15 -9 -15 -4 0 4 -13 -5 -29 -20 l-28 -27 -7 31 c-3 18 -10 29
-16 25 -6 -4 -18 -1 -27 7 -15 11 -16 11 -10 -5z"/>
<path d="M6605 1768 c-4 -10 1 -29 12 -45 11 -15 26 -43 34 -60 8 -18 17 -33
21 -33 12 0 19 20 12 32 -5 7 -9 21 -9 30 -1 10 -9 26 -19 36 -9 9 -23 26 -31
37 -12 18 -14 19 -20 3z"/>
<path d="M7226 1739 c-21 -21 -35 -39 -32 -39 19 0 47 24 61 50 19 37 19 37
-29 -11z"/>
<path d="M5776 1754 c-8 -20 -12 -17 44 -31 45 -12 65 -9 42 6 -7 4 -10 14 -7
22 4 12 -4 16 -33 17 -29 2 -41 -2 -46 -14z"/>
<path d="M3404 1734 c-8 -30 10 -54 27 -37 13 13 4 63 -11 63 -5 0 -13 -12
-16 -26z"/>
<path d="M6570 1729 c0 -5 5 -7 10 -4 6 3 10 8 10 11 0 2 -4 4 -10 4 -5 0 -10
-5 -10 -11z"/>
<path d="M5636 1721 c-4 -7 -5 -15 -2 -18 9 -9 19 4 14 18 -4 11 -6 11 -12 0z"/>
<path d="M6140 1722 c0 -5 -10 -14 -22 -20 l-23 -11 25 -1 c30 -2 50 -6 79
-15 15 -5 21 -2 21 9 0 9 -8 16 -19 16 -10 0 -24 7 -31 15 -14 16 -30 20 -30
7z"/>
<path d="M6300 1720 c0 -5 7 -10 15 -10 8 0 15 5 15 10 0 6 -7 10 -15 10 -8 0
-15 -4 -15 -10z"/>
<path d="M4021 1695 c-23 -11 -31 -20 -27 -31 3 -9 6 -18 6 -20 0 -10 33 -3
55 12 26 17 34 54 13 54 -7 -1 -28 -7 -47 -15z"/>
<path d="M6496 1701 c-4 -5 -4 -16 0 -24 3 -8 -1 -17 -9 -20 -9 -3 -13 -14
-10 -30 4 -19 0 -27 -15 -31 -12 -4 -22 -17 -24 -28 -5 -35 -28 -34 -28 1 0
20 -5 31 -14 31 -19 0 -26 -24 -20 -63 4 -29 4 -30 -7 -9 -7 12 -16 22 -21 22
-13 0 -9 -28 5 -33 6 -3 3 -6 -9 -6 -22 -1 -46 21 -57 52 -8 22 -18 22 -45 -3
-18 -17 -19 -24 -11 -49 8 -23 15 -28 32 -24 14 3 18 2 10 -4 -18 -13 -27 -61
-13 -78 10 -13 14 -13 27 0 8 8 11 20 8 26 -8 12 32 59 51 59 19 0 27 -19 15
-34 -9 -11 -6 -12 13 -9 13 3 34 0 46 -7 18 -10 21 -9 17 2 -2 7 -9 12 -14 11
-6 -1 -8 9 -5 22 5 27 21 32 40 13 15 -15 38 4 26 23 -15 24 -14 58 2 52 9 -3
14 1 14 13 0 16 2 17 10 4 7 -12 12 -12 22 -2 6 6 8 12 4 12 -5 0 -3 7 4 15 7
8 21 15 31 15 30 0 22 18 -11 25 -16 4 -32 15 -35 26 -4 10 -11 19 -16 19 -6
0 -7 5 -4 10 3 6 4 10 1 10 -3 0 -7 -4 -10 -9z"/>
<path d="M3804 1673 c-7 -26 -30 -26 -28 1 1 10 -6 16 -21 16 -32 0 -49 -23
-36 -48 9 -17 20 -19 91 -16 44 2 84 5 88 8 5 3 7 19 4 35 -4 29 -7 30 -48 29
-38 0 -45 -4 -50 -25z"/>
<path d="M6065 1690 c3 -5 8 -10 11 -10 2 0 4 5 4 10 0 6 -5 10 -11 10 -5 0
-7 -4 -4 -10z"/>
<path d="M5790 1684 c-11 -4 -14 -16 -12 -54 l4 -49 46 -10 c42 -9 49 -8 63 9
9 10 19 17 22 14 6 -7 47 14 47 24 0 13 -113 8 -118 -6 -2 -6 -8 -12 -14 -12
-6 0 -4 8 5 18 10 10 17 24 17 31 0 8 6 11 18 6 13 -5 12 -1 -5 14 -21 20 -40
24 -73 15z"/>
<path d="M5975 1680 c-6 -9 9 -26 28 -33 27 -10 32 -36 11 -53 -13 -10 -15
-17 -7 -20 7 -3 10 -11 8 -17 -9 -24 10 -39 36 -27 20 9 24 19 24 51 0 30 -3
39 -17 39 -20 0 -34 36 -20 53 8 9 1 12 -25 12 -19 0 -36 -2 -38 -5z m85 -90
c0 -5 -5 -10 -11 -10 -5 0 -7 5 -4 10 3 6 8 10 11 10 2 0 4 -4 4 -10z"/>
<path d="M3548 1673 c6 -2 18 -2 25 0 6 3 1 5 -13 5 -14 0 -19 -2 -12 -5z"/>
<path d="M6567 1666 c-4 -10 -1 -13 8 -9 8 3 12 9 9 14 -7 12 -11 11 -17 -5z"/>
<path d="M7079 1674 c-4 -25 -4 -64 -1 -64 7 0 41 45 42 54 0 5 -3 6 -7 3 -3
-4 -12 -2 -20 4 -7 6 -14 8 -14 3z"/>
<path d="M3645 1639 c6 -9 3 -11 -9 -6 -10 4 -15 3 -11 -3 3 -6 -1 -10 -9 -10
-26 0 -18 -28 12 -44 46 -23 102 11 66 40 -34 26 -57 38 -49 23z"/>
<path d="M6240 1641 c0 -6 5 -13 10 -16 6 -3 10 1 10 9 0 9 -4 16 -10 16 -5 0
-10 -4 -10 -9z"/>
<path d="M6755 1640 c-3 -5 -1 -10 4 -10 6 0 11 5 11 10 0 6 -2 10 -4 10 -3 0
-8 -4 -11 -10z"/>
<path d="M6327 1633 c-4 -3 -7 -11 -7 -17 0 -6 5 -5 12 2 6 6 9 14 7 17 -3 3
-9 2 -12 -2z"/>
<path d="M6005 1620 c-3 -5 -1 -10 4 -10 6 0 11 5 11 10 0 6 -2 10 -4 10 -3 0
-8 -4 -11 -10z"/>
<path d="M6635 1620 c-3 -5 -1 -10 4 -10 6 0 11 5 11 10 0 6 -2 10 -4 10 -3 0
-8 -4 -11 -10z"/>
<path d="M6690 1619 c0 -5 5 -7 10 -4 6 3 10 8 10 11 0 2 -4 4 -10 4 -5 0 -10
-5 -10 -11z"/>
<path d="M6765 1610 c-3 -5 -3 -10 2 -10 4 0 1 -5 -7 -10 -12 -8 -9 -10 13
-10 20 0 27 5 27 20 0 21 -24 28 -35 10z"/>
<path d="M5630 1599 c0 -5 5 -7 10 -4 6 3 10 8 10 11 0 2 -4 4 -10 4 -5 0 -10
-5 -10 -11z"/>
<path d="M6560 1590 c0 -5 5 -10 10 -10 6 0 10 5 10 10 0 6 -4 10 -10 10 -5 0
-10 -4 -10 -10z"/>
<path d="M6120 1580 c-13 -9 -13 -10 0 -10 8 0 22 5 30 10 13 9 13 10 0 10 -8
0 -22 -5 -30 -10z"/>
<path d="M6646 1564 c-4 -9 -4 -19 -2 -21 8 -8 26 8 26 23 0 19 -16 18 -24 -2z"/>
<path d="M3920 1560 c0 -5 9 -10 19 -10 11 0 23 5 26 10 4 6 -5 10 -19 10 -14
0 -26 -4 -26 -10z"/>
<path d="M5236 1561 c-3 -5 3 -11 14 -14 11 -3 20 -13 20 -24 0 -29 15 -44 53
-52 46 -11 71 10 55 45 -12 26 -34 34 -24 9 3 -8 4 -15 3 -15 -18 1 -78 29
-91 43 -20 20 -23 20 -30 8z"/>
<path d="M6180 1540 c0 -5 5 -10 11 -10 5 0 7 5 4 10 -3 6 -8 10 -11 10 -2 0
-4 -4 -4 -10z"/>
<path d="M6540 1520 c0 -5 7 -10 15 -10 8 0 15 5 15 10 0 6 -7 10 -15 10 -8 0
-15 -4 -15 -10z"/>
<path d="M6124 1505 c-11 -29 2 -37 19 -11 15 23 16 26 2 26 -9 0 -18 -7 -21
-15z"/>
<path d="M5655 1485 c0 -32 15 -44 15 -12 0 14 -4 28 -8 31 -4 2 -8 -6 -7 -19z"/>
<path d="M6495 1489 c-11 -17 -2 -18 19 -3 17 12 17 14 4 14 -9 0 -20 -5 -23
-11z"/>
<path d="M5960 1480 c0 -5 9 -10 21 -10 11 0 17 5 14 10 -3 6 -13 10 -21 10
-8 0 -14 -4 -14 -10z"/>
<path d="M6999 1486 c-2 -3 -16 -7 -31 -10 -44 -8 -86 -35 -100 -63 -7 -16
-20 -28 -28 -29 -51 -3 -134 -54 -112 -68 6 -3 15 1 22 9 7 8 21 15 31 15 10
0 20 4 23 9 3 4 19 11 35 14 18 4 32 14 36 27 3 11 11 20 16 20 17 0 24 2 43
12 14 8 15 12 6 18 -8 5 0 12 24 20 19 6 38 16 41 21 6 9 2 13 -6 5z"/>
<path d="M7700 1480 c0 -6 4 -9 9 -6 5 4 12 1 14 -4 3 -6 4 -5 3 2 -3 15 -26
23 -26 8z"/>
<path d="M6552 1440 c-26 -24 -28 -36 -8 -43 9 -4 12 -14 9 -27 -8 -30 16 -44
39 -23 17 16 16 33 -3 33 -6 0 -7 -4 -4 -10 3 -5 1 -10 -4 -10 -16 0 -13 21 4
40 14 15 11 60 -4 60 -4 0 -17 -9 -29 -20z"/>
<path d="M7910 1450 c8 -5 20 -10 25 -10 6 0 3 5 -5 10 -8 5 -19 10 -25 10 -5
0 -3 -5 5 -10z"/>
<path d="M8157 1441 c2 -10 -3 -25 -11 -34 -12 -12 -13 -17 -3 -21 6 -4 -6 -4
-28 -2 -39 5 -40 5 -15 -10 l25 -15 -25 5 c-14 3 -36 9 -50 12 -20 4 -22 3
-10 -5 13 -10 13 -11 0 -11 -13 0 -13 -1 0 -10 9 -6 10 -10 3 -10 -14 0 -35
34 -27 43 6 6 -68 29 -83 26 -4 -1 -15 -1 -23 0 -12 1 -12 3 -2 10 10 6 9 10
-7 14 -12 3 -19 2 -16 -3 3 -4 -2 -11 -11 -14 -22 -8 -26 -8 -19 4 4 6 -1 7
-11 3 -10 -3 -15 -2 -12 3 4 5 -5 10 -18 10 -13 1 -24 0 -24 -3 0 -4 43 -23
99 -44 13 -5 22 -12 19 -14 -3 -3 -22 2 -42 10 -21 9 -43 14 -49 12 -7 -2 7
-10 31 -17 42 -13 61 -37 20 -25 -21 5 -21 5 -5 -5 10 -7 21 -9 24 -6 4 3 13
-3 21 -15 20 -28 52 -38 85 -26 21 7 32 6 40 -3 9 -10 7 -11 -13 -6 -14 3 -1
-5 28 -19 54 -25 69 -41 29 -32 -12 4 -29 2 -37 -4 -12 -8 -11 -9 5 -5 11 3
26 2 33 -3 18 -11 -11 -41 -41 -41 -16 0 -18 -3 -9 -9 11 -7 10 -9 -3 -14 -11
-5 -14 -3 -9 5 5 8 2 9 -11 4 -25 -9 -92 13 -74 25 11 7 9 9 -6 10 -11 1 -26
2 -32 2 -7 -1 -10 3 -7 8 3 5 -4 9 -15 9 -23 0 -37 16 -19 23 7 2 -6 10 -30
17 -23 7 -48 20 -55 28 -10 13 -9 14 10 4 12 -7 28 -12 35 -12 7 1 -2 7 -21
15 -18 8 -38 12 -45 8 -6 -3 -8 -2 -4 2 5 5 -30 22 -76 40 -74 28 -91 31 -147
25 -35 -4 -79 -15 -97 -24 -20 -10 -41 -14 -55 -10 -19 6 -20 5 -9 -9 11 -13
10 -16 -5 -21 -18 -6 -33 -19 -141 -119 -29 -27 -55 -47 -58 -45 -2 3 -22 -12
-44 -34 -23 -21 -47 -38 -55 -38 -8 0 -15 -4 -15 -9 0 -5 -17 -20 -37 -32 -21
-13 -39 -27 -41 -31 -2 -4 -8 -8 -14 -8 -5 0 -24 -11 -41 -24 -28 -21 -68 -41
-232 -117 -60 -28 -164 -51 -193 -45 -20 5 -23 4 -12 -4 13 -9 13 -10 0 -11
-8 0 -26 -3 -40 -6 -14 -2 -43 -6 -65 -8 -22 -2 -48 -6 -58 -10 -10 -4 -94 -5
-186 -3 -142 5 -175 9 -215 27 -53 23 -70 27 -46 10 28 -19 -52 2 -119 32 -35
16 -67 26 -72 23 -5 -3 -9 -1 -9 5 0 6 -6 8 -14 5 -7 -3 -20 2 -29 10 -8 8
-17 12 -21 9 -3 -4 -6 -1 -6 5 0 6 -7 9 -17 5 -12 -5 -14 -3 -8 7 6 10 4 12
-9 7 -11 -5 -15 -3 -10 5 5 8 1 9 -12 4 -10 -4 -15 -4 -11 0 5 6 -63 44 -79
44 -3 0 -2 -12 1 -27 4 -23 4 -25 -4 -8 -5 11 -10 29 -10 41 -1 11 -21 44 -46
73 -45 52 -54 71 -35 71 6 0 10 5 10 10 0 7 -6 7 -20 0 -21 -11 -73 -3 -65 10
3 4 -1 13 -9 19 -11 9 -18 8 -31 -5 -16 -17 -16 -18 1 -31 9 -7 27 -10 39 -7
16 4 22 1 22 -11 0 -21 -42 -49 -58 -39 -8 5 -9 3 -4 -5 6 -10 3 -11 -15 -1
-26 14 -40 1 -40 -39 0 -20 -2 -21 -15 -11 -21 17 -141 41 -171 34 -26 -7 -31
-19 -13 -30 8 -4 7 -9 -2 -15 -11 -6 -10 -11 3 -26 9 -10 18 -33 20 -52 2 -21
11 -39 26 -49 12 -8 22 -10 22 -4 0 6 -7 12 -16 14 -13 3 -13 5 1 23 9 11 14
15 11 8 -10 -18 13 -26 32 -11 9 7 1 -8 -17 -34 -19 -26 -37 -45 -41 -43 -5 3
-11 -2 -14 -11 -4 -9 -9 -14 -12 -11 -3 3 -1 15 6 26 9 18 8 21 -11 18 -13 -1
-29 8 -41 24 -23 30 -36 113 -20 123 7 4 8 15 1 35 -14 38 -57 49 -81 20 -25
-30 -48 -114 -48 -175 0 -94 51 -203 102 -220 12 -3 28 -12 35 -19 7 -8 42
-23 78 -35 36 -12 65 -24 65 -27 0 -3 -20 -3 -45 -1 -25 3 -45 2 -45 -2 0 -5
11 -22 25 -39 39 -45 113 -63 195 -47 l35 7 -30 -17 c-45 -25 -94 -74 -118
-119 -28 -52 -30 -174 -4 -222 l17 -33 215 0 215 1 0 24 c0 31 -45 56 -101 57
-22 0 -49 8 -60 17 -17 14 -18 21 -9 51 6 19 6 38 1 43 -11 11 -20 -4 -23 -36
-2 -24 -3 -24 -28 -9 -14 9 -32 25 -42 36 -14 18 -15 24 -3 47 22 42 65 55
122 35 111 -39 141 -45 154 -30 16 20 -15 54 -50 54 -14 0 -32 4 -40 9 -18 11
-22 51 -9 68 7 9 7 13 0 13 -5 0 -12 -7 -16 -15 -4 -11 -11 -13 -30 -5 -14 5
-42 11 -63 14 -44 5 -97 24 -71 25 9 1 30 12 46 26 17 14 34 25 39 25 5 0 19
11 31 25 12 14 20 25 18 25 -2 0 3 23 10 51 17 65 10 77 -23 39 -14 -17 -35
-36 -47 -42 -17 -9 -15 -5 7 17 32 33 97 137 97 156 1 38 16 41 75 14 33 -14
64 -24 71 -21 6 2 17 -1 23 -7 18 -18 175 -76 181 -67 3 5 23 2 45 -6 22 -8
65 -17 95 -20 30 -4 58 -12 62 -17 11 -17 113 -25 273 -20 194 5 255 16 395
71 63 24 121 45 128 45 6 0 12 4 12 9 0 4 4 8 9 8 5 0 46 21 92 47 46 26 86
48 89 48 13 1 138 90 134 96 -2 4 13 19 34 35 20 15 78 60 127 99 121 96 184
124 277 126 75 2 171 -25 202 -57 8 -8 19 -14 25 -14 15 0 115 -52 119 -62 2
-4 8 -8 14 -8 6 0 23 -11 40 -25 16 -14 39 -25 49 -25 27 0 52 27 45 47 -5 13
-4 14 9 3 13 -11 15 -9 15 14 0 14 4 26 8 26 5 0 9 6 9 13 0 6 12 42 27 79 42
106 58 208 32 208 -9 0 -12 -7 -9 -19z m-70 -107 c-3 -3 -12 -4 -19 -1 -8 3
-5 6 6 6 11 1 17 -2 13 -5z m23 -36 c0 -11 -2 -10 -38 8 -42 20 -40 25 3 11
19 -6 35 -14 35 -19z m-20 -18 c18 -12 2 -12 -25 0 -13 6 -15 9 -5 9 8 0 22
-4 30 -9z m-2785 -250 c3 -11 7 -33 7 -49 1 -25 8 -33 57 -55 31 -14 45 -23
31 -20 -20 4 -157 20 -206 23 -6 1 -10 11 -9 24 1 14 8 21 18 19 10 -2 22 10
32 27 14 27 39 50 57 51 4 0 10 -9 13 -20z m-135 -120 c0 -5 -5 -10 -11 -10
-5 0 -7 5 -4 10 3 6 8 10 11 10 2 0 4 -4 4 -10z m-30 -27 c0 -11 4 -13 13 -6
20 15 61 15 81 0 18 -13 18 -15 -10 -40 -39 -37 -57 -36 -49 3 4 19 3 30 -4
30 -6 0 -12 -12 -12 -27 -2 -24 -2 -25 -6 -5 -6 29 -23 28 -23 -2 0 -25 -28
-40 -50 -26 -19 12 -2 50 27 61 17 6 23 14 19 25 -3 8 -2 12 4 9 6 -3 10 -13
10 -22z m170 -493 c0 -5 -5 -10 -11 -10 -5 0 -7 5 -4 10 3 6 8 10 11 10 2 0 4
-4 4 -10z"/>
<path d="M5370 1440 c0 -5 7 -10 16 -10 8 0 13 -4 9 -9 -3 -5 3 -16 14 -23 10
-7 37 -37 60 -66 23 -29 45 -50 50 -48 4 3 16 -7 27 -21 10 -15 24 -32 31 -38
6 -7 11 -20 10 -31 -3 -28 28 -28 41 1 6 14 18 25 26 25 17 0 11 34 -10 51 -8
6 -14 20 -14 29 0 11 -13 24 -30 32 -16 7 -30 18 -30 24 0 20 29 24 40 6 11
-16 11 -15 6 1 -3 10 -6 25 -6 33 0 11 -6 13 -20 9 -12 -4 -28 -1 -37 7 -9 7
-14 9 -11 3 3 -5 2 -20 -3 -32 -11 -30 -53 -26 -57 5 -2 13 -11 22 -20 22 -9
0 -32 9 -50 20 -37 23 -42 24 -42 10z"/>
<path d="M7650 1430 c8 -5 22 -9 30 -9 10 0 8 3 -5 9 -27 12 -43 12 -25 0z"/>
<path d="M8060 1420 c8 -5 20 -10 25 -10 6 0 3 5 -5 10 -8 5 -19 10 -25 10 -5
0 -3 -5 5 -10z"/>
<path d="M7708 1408 c5 -5 16 -8 23 -6 8 3 3 7 -10 11 -17 4 -21 3 -13 -5z"/>
<path d="M7630 1385 c14 -8 32 -14 40 -14 8 0 0 6 -19 14 -42 19 -54 19 -21 0z"/>
<path d="M5417 1357 c-3 -7 -2 -19 3 -26 5 -9 9 -8 14 5 4 9 3 21 -2 26 -6 6
-12 4 -15 -5z"/>
<path d="M6053 1363 c9 -2 23 -2 30 0 6 3 -1 5 -18 5 -16 0 -22 -2 -12 -5z"/>
<path d="M6460 1360 c0 -5 5 -10 11 -10 5 0 7 5 4 10 -3 6 -8 10 -11 10 -2 0
-4 -4 -4 -10z"/>
<path d="M6400 1310 c-10 -6 -11 -10 -2 -10 6 0 12 -5 12 -11 0 -6 -7 -9 -15
-5 -8 3 -15 1 -15 -4 0 -6 5 -10 10 -10 6 0 10 -8 10 -17 0 -16 1 -16 16 -1
12 12 14 20 5 36 -6 10 -7 22 -4 26 9 9 0 7 -17 -4z"/>
<path d="M6339 1301 c-21 -5 -25 -10 -18 -26 6 -17 8 -17 8 -2 1 20 17 23 24
5 4 -8 6 -7 6 4 1 9 7 19 14 21 16 7 -2 6 -34 -2z"/>
<path d="M5820 1291 c0 -10 14 -15 33 -12 4 1 1 -12 -8 -28 -21 -41 -19 -48
10 -48 14 0 22 4 18 10 -3 5 -6 26 -7 46 -1 29 -5 37 -23 39 -13 2 -23 -1 -23
-7z"/>
<path d="M6241 1264 c0 -11 3 -14 6 -6 3 7 2 16 -1 19 -3 4 -6 -2 -5 -13z"/>
<path d="M6105 1249 c-4 -6 -5 -12 -3 -14 7 -7 48 7 48 16 0 13 -37 11 -45 -2z"/>
<path d="M5100 1235 c0 -18 19 -40 26 -32 4 4 0 15 -9 24 -9 10 -17 13 -17 8z"/>
<path d="M5305 1210 c3 -5 11 -10 16 -10 6 0 7 5 4 10 -3 6 -11 10 -16 10 -6
0 -7 -4 -4 -10z"/>
<path d="M5740 1196 c0 -22 26 -43 38 -31 7 7 -19 55 -30 55 -4 0 -8 -11 -8
-24z"/>
<path d="M5710 1200 c0 -5 5 -10 10 -10 6 0 10 5 10 10 0 6 -4 10 -10 10 -5 0
-10 -4 -10 -10z"/>
<path d="M7960 1190 c8 -5 20 -10 25 -10 6 0 3 5 -5 10 -8 5 -19 10 -25 10 -5
0 -3 -5 5 -10z"/>
<path d="M4975 1161 c-41 -19 -85 -55 -85 -70 0 -15 53 -20 67 -6 7 8 23 22
36 32 22 17 43 63 29 63 -4 0 -25 -9 -47 -19z"/>
<path d="M5093 1141 c-4 -16 -9 -18 -28 -11 -23 9 -23 7 -18 -28 3 -20 7 -38
8 -40 7 -8 95 -11 95 -3 0 15 -39 101 -46 101 -3 0 -8 -9 -11 -19z"/>
<path d="M6467 1106 c-11 -8 -14 -17 -8 -20 5 -4 15 3 21 14 13 23 11 24 -13
6z"/>
<path d="M5620 1020 c20 -13 33 -13 25 0 -3 6 -14 10 -23 10 -15 0 -15 -2 -2
-10z"/>
<path d="M5490 977 c0 -3 15 -10 32 -16 18 -6 28 -7 23 -2 -12 10 -55 25 -55
18z"/>
<path d="M4445 518 c-33 -17 -76 -35 -95 -39 -57 -13 -138 -52 -117 -57 10 -2
29 3 42 12 35 23 55 19 25 -4 l-25 -20 33 0 c19 0 75 19 125 42 89 40 134 66
92 53 l-20 -7 20 17 c20 17 20 17 -3 12 -19 -4 -21 -3 -11 9 17 20 2 16 -66
-18z"/>
<path d="M5475 410 c-3 -5 3 -10 15 -10 12 0 18 5 15 10 -3 6 -10 10 -15 10
-5 0 -12 -4 -15 -10z"/>
<path d="M4638 354 c-3 -3 -25 -5 -49 -5 -43 0 -155 -33 -174 -52 -6 -6 -3 -7
10 -4 23 7 29 8 183 33 61 9 112 20 112 23 0 8 -75 13 -82 5z"/>
<path d="M7085 298 c-11 -6 -31 -17 -43 -25 l-24 -15 24 -25 c12 -14 37 -32
53 -40 30 -15 30 -15 13 4 -20 22 -23 43 -7 43 6 0 22 8 35 19 22 18 23 19 5
35 -21 19 -29 19 -56 4z"/>
<path d="M4325 290 c-3 -5 3 -10 14 -10 12 0 21 5 21 10 0 6 -6 10 -14 10 -8
0 -18 -4 -21 -10z"/>
<path d="M5631 242 c-1 -48 -31 -115 -58 -131 -14 -8 -7 -10 33 -11 28 0 53 2
56 5 3 3 2 23 -3 43 -4 20 -12 60 -17 87 l-10 50 -1 -43z"/>
<path d="M7223 244 c33 -18 152 -34 169 -22 8 4 -13 8 -47 8 -33 1 -78 7 -100
15 -51 19 -57 18 -22 -1z"/>
<path d="M6828 226 c-31 -13 -78 -36 -105 -52 -26 -16 -68 -39 -93 -51 l-45
-22 104 -1 c102 0 104 0 202 47 55 25 99 49 99 53 0 3 -10 16 -23 28 -30 28
-67 28 -139 -2z"/>
<path d="M7438 233 c7 -3 16 -2 19 1 4 3 -2 6 -13 5 -11 0 -14 -3 -6 -6z"/>
<path d="M3525 110 c-19 -8 -19 -9 3 -9 12 -1 22 4 22 9 0 6 -1 10 -2 9 -2 0
-12 -4 -23 -9z"/>
</g>
</svg>
